<?xml version="1.0" encoding="utf-8"?>
<!-- Generator: Adobe Illustrator 24.0.3, SVG Export Plug-In . SVG Version: 6.00 Build 0)  -->
<!DOCTYPE svg PUBLIC "-//W3C//DTD SVG 1.1//EN" "http://www.w3.org/Graphics/SVG/1.1/DTD/svg11.dtd" [
	<!ENTITY ns_extend "http://ns.adobe.com/Extensibility/1.0/">
	<!ENTITY ns_ai "http://ns.adobe.com/AdobeIllustrator/10.0/">
	<!ENTITY ns_graphs "http://ns.adobe.com/Graphs/1.0/">
	<!ENTITY ns_vars "http://ns.adobe.com/Variables/1.0/">
	<!ENTITY ns_imrep "http://ns.adobe.com/ImageReplacement/1.0/">
	<!ENTITY ns_sfw "http://ns.adobe.com/SaveForWeb/1.0/">
	<!ENTITY ns_custom "http://ns.adobe.com/GenericCustomNamespace/1.0/">
	<!ENTITY ns_adobe_xpath "http://ns.adobe.com/XPath/1.0/">
]>
<svg version="1.1" xmlns:x="&ns_extend;" xmlns:i="&ns_ai;" xmlns:graph="&ns_graphs;"
	 xmlns="http://www.w3.org/2000/svg" xmlns:xlink="http://www.w3.org/1999/xlink" x="0px" y="0px" viewBox="0 0 1272.3 1234.1"
	 style="enable-background:new 0 0 1272.3 1234.1;" xml:space="preserve">
<style type="text/css">
	.st0{fill:#D3D3D3;}
	.st1{fill-rule:evenodd;clip-rule:evenodd;}
</style>
<metadata>
	<sfw  xmlns="&ns_sfw;">
		<slices></slices>
		<sliceSourceBounds  bottomLeftOrigin="true" height="1234.1" width="1272.3" x="26" y="-1067.8"></sliceSourceBounds>
	</sfw>
</metadata>
<g id="Background">
	<path id="Background_1_" class="st0" d="M428.3,1053.4c-122,41.8-244,83.6-366,125.4c-4.1-16.2-11.1-41.3-22.4-71.2
		c-13.7-36.3-23.8-53.3-30-67.6c-28.9-67.3,13.4-112.8,23-251.8c0.8-12,3.3-51.7,0.1-103.1C26.5,580.8,6.4,543.2,1.5,481.2
		c-3.9-49.3,1.7-121,48-212.2c308.5-134.2,508.8-135.3,635.9-109.7c29.6,6,138,30.5,354.8,79.7c79.6,18,145.1,33,189.2,43
		c8.3,356.6-19,499-51.5,554.6c-9.1,15.5-36.5,55.1-38,110.8c-1,38.4,11,58.9,12.7,110.8c1.2,37.3-3.8,67.7-7.9,87
		c-73.8-10.7-131-24.4-170.5-35.2c-17.2-4.7-25.7-7.4-43-11.8c-63.6-16.2-116.3-22.3-151.4-24.9c-15-8.7-29.9-17.4-44.9-26.2
		c16.8-12.5,40.6-33,61.6-63.6c25.2-36.7,24-54.1,37.5-80.4c34.6-67.2,100.7-43.5,206.6-129c54.9-44.3,70.9-78,78.2-99.2
		c11-32.1,10.4-61.4,8.3-80.5c-5.2,11.5-24.7,50.3-70.3,71.9c-59.7,28.3-116.1,4-124.4,0.2c19.9,0.5,74.6-0.7,128.7-37.3
		c66.1-44.7,85.3-111.1,89.7-128.2c-7.8,12.3-43.3,65.4-114.5,84.4c-64.9,17.3-117.5-5-131.9-11.6c79.5,0.4,152.3-39.8,189.1-105.7
		c40.3-72.1,20.9-144.8,16.5-160c-3.9,21.5-17.9,82.4-71.2,120c-30.3,21.3-60.4,26.1-96.7,31.3c-34.7,5-91.6,8.6-162.3-9.1
		c53.9,0.7,95.9-10.4,122.3-19.6c36.3-12.6,73.9-25.7,100.7-62.8c13.8-19.1,20.2-38.3,23.4-51.5c-67.7,35-125.7,51.4-166.4,59.9
		c-32.6,6.8-62.1,10.2-106.1,15.3c-53.5,6.2-98.1,9.4-129.6,11.2c8.5-1.3,135.3-22.7,165.3-114.9c4.1-12.6,7.3-29.4,5.8-50.4
		c-36.2,38.9-73.1,60.2-106.6,71.9c-55.1,19.2-87.1,7.3-142.4,26.5c-44.4,15.4-79.2,42.2-106.3,71c23.1-27.8,52.2-59,88.1-90.3
		c39.4-34.3,77.6-60.5,110.8-80.4c-19.6-1.9-158.8-13.2-253.6,88.5c-41.5,44.5-58.6,93.6-66,123.4c-5.1-4-13.4-9.9-24.5-15.2
		c-39.9-19.3-66-7.7-93.7-23c-11.4-6.3-26.2-18.8-37.3-46.9c-10.3,24.3-19.3,56.5-4.3,77.5c5.7,8,12.9,11.6,18.6,14.7
		c18.9,10.2,45.4,27.7,76.6,59.9c-27.3-6.7-61.5-10.9-99.8-6c-6.8,0.9-13.3,2-19.5,3.3c29.7,26.3,67.8,68.4,86.5,128.6
		c9.2,29.6,7.4,43.3,11.6,82.4c8.5,79.3,19.7,184.1,84,247.8c18.6,18.4,54.3,45.9,119,57.7C433.5,1037,430.9,1045.2,428.3,1053.4z"
		/>
</g>
<g id="General_1_">
	<g id="General">
		<g id="Pillow">
			<path class="st1" d="M91.3,1144.3c0.2-1,0.2-2,0.4-3c0.2-0.9,0.1,0.1-0.1,1.6c-0.2,1.5-0.7,3.6-0.9,4.9c-0.9,3.4-2.1,7.4-3.1,9
				c-1,1.5-1.8,2.6-2.1,2.3c-0.3-0.4,0.1-1.8,0.9-3.9c0.3-1.1,0.8-2.4,1.2-3.8c0.2-0.7,0.4-1.5,0.6-2.3c0.2-0.8,0.4-1.6,0.5-2.5
				c0.6-3.7,0.8-7.9,0.6-11.8c-0.2-2-0.3-3.8-0.6-5.5c-0.1-0.8-0.2-1.6-0.3-2.4c-0.1-0.7-0.3-1.4-0.4-2
				c-1.6-10.1-5.2-20.2-10.1-29.7c-5-9.6-11.1-18.8-17.2-28.1c-6.1-9.4-12.3-19-17.2-29.3c-4.8-10.4-8.4-21.4-10.6-32.5
				c-0.3-1.6-0.6-3.1-0.9-4.5c-0.2-0.7-0.3-1.5-0.3-2.2c-0.1-0.7-0.2-1.4-0.3-2.2c-0.2-1.4-0.3-2.8-0.5-4.3
				c-0.1-0.7-0.2-1.4-0.2-2.1c0-0.7-0.1-1.5-0.1-2.2c-1.3-12.1-1.1-25.3,0.2-38.6c1.3-13.3,3.8-26.6,6.7-39.2
				c0.4-1.7,0.8-3.5,1.2-5.3c0.4-1.8,0.9-3.5,1.3-5.3c0.4-1.8,0.9-3.5,1.3-5.2c0.5-1.7,0.9-3.5,1.4-5.2c1.8-6.6,3.8-13.2,5.7-19.5
				c5.6-18.5,12.2-38.5,17.7-59.2c5.6-20.8,9.8-42.5,10.8-63.8c0.1-3.9,0.3-7.8,0.1-11.7c-0.1-3.9-0.2-7.8-0.5-11.7
				c-0.2-2.3-0.3-4.6-0.5-6.9l-0.8-6.9l-0.4-3.4c-0.1-1.1-0.3-2.3-0.5-3.4c-0.4-2.3-0.7-4.6-1.1-6.8c-0.4-2.3-0.8-4.5-1.3-6.8
				c-0.4-2.3-0.8-4.5-1.3-6.7c-1-4.5-1.9-8.9-3-13.2c-4.1-17.4-8.6-33.9-12.2-48.4c-2.4-9.7-4.7-19.5-6.6-29.5c-0.5-2.5-1-5-1.4-7.5
				c-0.4-2.5-0.8-5.1-1.2-7.6c-0.5-2.5-0.7-5.1-1-7.7c-0.3-2.6-0.7-5.1-0.9-7.7c-0.9-10.3-1.3-20.8-1.1-31.2
				c0.2-10.5,0.9-21,1.9-31.4c1.2-9.4,3.1-23.6,4.9-33.8c4.5-25.9,10.9-54.3,18.4-78c1.7-5.2,3.8-11.4,6-17.5
				c2.1-6.1,4.6-13.3,6.4-17.4c1.3-2.9,2.3-3.5,3.9-8.1c0.4,1.6,3.7-3.7-0.3,9.3c-2.6,8.5-6,17.8-8.6,25.9
				c-8.4,26.3-16,57.3-21.3,88.8c-2.7,15.7-4.7,31.6-5.7,47.1c-1,15.5-1,30.6,0.3,44.6c0.1,1.3,0.2,2.5,0.3,3.8
				c0.2,1.3,0.3,2.5,0.5,3.8c0.3,2.5,0.6,5.1,1,7.7c0.8,5.1,1.6,10.3,2.6,15.3c1.9,10.1,4.2,20,6.1,28.9c4.8,18.6,10,37.7,14.1,56.1
				c3.3,14.7,6,29.7,7.3,44.8l0.4,5.7c0.1,0.9,0.2,1.9,0.2,2.8l0.1,2.9c0.1,3.8,0.3,7.6,0.1,11.4l-0.1,5.7c-0.1,1.9-0.3,3.8-0.4,5.7
				c-0.2,3.8-0.7,7.6-1.1,11.4c-1.7,15.1-5,30-8.8,44.7c-3.8,14.7-8.3,29.1-12.8,43.5c-5,16-10,31.8-14.2,48.2
				c-4.2,16.3-7.6,33.2-9.3,51.1c-1.4,15.6-1.3,31.2,1,46.5c2.4,15.3,7.2,30,14.3,43.6c7.2,13.6,16.2,26.1,24.1,39.3
				c4,6.6,7.7,13.4,10.6,20.7c2.9,7.2,5.1,14.7,6.2,22.4c0.1,1.1,0.5,4.4,0.5,8.2c0,1,0.1,1.9,0,2.9c0,1-0.1,2-0.1,3
				c0,1-0.2,2-0.2,2.9C91.4,1142.6,91.4,1143.5,91.3,1144.3z"/>
			<path class="st1" d="M185,1166.4l-0.4-0.1c-0.2-0.3,0.5,0.1,0.8,0.2c0.4,0.2,0.9,0.2,1.1,0.4c0.1,0.3,0.2,0.6,0.1,1
				c-0.3,0.8-1,0.5-1.9,0.6c-1,0-2.4,0.3-3,0.2c-2.5-0.7-5.2-1.3-7.9-2c-2.7-0.6-5.4-1.3-8.1-1.9c-0.8-0.1-1.4-0.3-2-0.7
				c-2.9-0.3-6.3-1.2-9.4-1.8c-0.9-0.1-1.8-0.2-2.6-0.3c-0.8-0.1-1.7-0.2-2.5-0.4c-2.4-0.3-4.9-0.6-7.6-0.9
				c-2.7-0.2-5.4-0.5-8.1-0.7c-1-0.1-2,0-2.9-0.1c-4.6-0.4-9.3-0.3-13-0.3c-4.9,0-10,0.6-15.1,1.2c-1.2-0.1-2.9,0.2-4.2,0.3
				c-0.8,0.1-1.6,0.1-2.5,0.2c-0.8,0.1-1.7,0.2-2.5,0.2c-1.7,0.1-3.4,0.1-4.9,0c-0.7-0.1-1.6-0.3-2.4-0.4c-0.8-0.1-1.8-0.1-2.4-0.4
				c-0.4-0.2-0.7-0.9-1.3-0.9c0-0.9-1-2.2,0.6-2.8c1.1-0.4,2.4-0.1,3.5-0.1c7.2,0.1,16.1-1.3,23.3-1.7c2.6-0.1,5.4-0.6,7.7-0.2
				c2.4-0.3,4.9-0.2,7.3-0.1c7.6,0.2,15.3,0.5,22.9,1.5c4.2,0.6,8.3,1.3,12.8,2.3c7.8,1.7,15.2,3.7,22.5,6.5
				C182.9,1165.8,184.2,1166.4,185,1166.4z"/>
			<path class="st1" d="M1190.9,295.6c-1.3-0.4-2.6-0.7-3.9-1.1c-2.3-0.8,5.2,1.4,8.5,2.5c2.2,0.8,4.7,1.6,6.9,2.4
				c2.2,0.8,4,1.6,5.1,2.2c2,1.1,3.7,2.1,3.3,2.4c-0.8,0.7-7.6-2.5-16.8-5.1c-2.5-0.6-5.2-1.3-7.9-1.9c-2.7-0.6-5.5-1.1-8.2-1.6
				c-5.4-0.9-10.3-1.6-13.6-1.9c-28.1-4.1-58-3.5-88.2-5.7c-15.1-1.2-30.3-3-45.2-5.7c-14.9-2.7-29.7-5.9-44.2-9.5
				c-4.1-1-7.9-2-11.5-3c-3.7-1-7.2-2-11-3.1c-31.1-8-67.1-19.5-100.4-27.8c-2.3-0.6-4.6-1.1-7-1.7c-2.3-0.6-4.7-1-7-1.6
				c-4.7-1-9.4-2.1-14-3.1c-2.2-0.5-4.5-1-6.7-1.5c-2.2-0.5-4.5-0.8-6.7-1.3c-4.5-0.8-8.9-1.6-13.3-2.5
				c-25.4-4.4-53.4-8.4-82.4-10.4c-1.8-0.1-3.6-0.3-5.4-0.4l-2.7-0.2l-2.7-0.1c-3.6-0.2-7.3-0.4-11-0.5c-3.7-0.2-7.3-0.4-11-0.5
				l-2.8-0.1l-2.8,0l-5.5-0.1c-3.7-0.1-7.4-0.1-11-0.2l-5.5-0.1l-2.8,0l-2.8,0c-7.3,0.1-14.6,0.3-21.9,0.4c-1.3,0-2.7,0-4,0.1
				l-4,0.2l-8,0.5c-5.3,0.3-10.6,0.6-15.9,0.9c-49.8,3.5-100.7,12.1-139.5,22.1c-6.4,1.7-12.9,3.4-19.4,5.1
				c-3.3,0.8-6.5,1.8-9.7,2.8c-3.2,1-6.5,2-9.7,2.9c-13,3.8-25.9,8.2-38.9,12.8c-26,9.2-52,19.4-78.5,28.9c-6,2-13.6,4.6-21.3,7.2
				c-7.7,2.6-15.6,5.1-22.3,7.2c-33.7,10.4-71.9,19.8-104.7,25.1c-7.3,1.2-16.1,2.4-24.7,3.5c-4.3,0.6-9,1.2-13.3,1.7
				c-4.4,0.5-8.4,0.9-11.4,1.2c-4.3,0.3-5.5-0.3-12.1,0.4c1.7-1.2-6.5-1.5,11.6-4.2c11.9-1.8,25-3.4,36.4-5.2
				c18.4-2.9,38-6.7,58.2-11.4c20.2-4.7,40.9-10.3,61.5-16.7c20.6-6.3,40.9-13.6,60.5-20.9c19.7-7.3,38.7-14.4,56.7-20.8
				c6.4-2.3,13.1-4.6,19.7-6.8c3.3-1.1,6.7-2.2,10-3.3c3.4-1,6.7-2,10.1-3.1c3.3-1,6.7-2,10-3c3.3-1,6.5-2,9.8-2.8
				c6.5-1.7,12.8-3.3,18.8-4.7c25.1-6.4,51.3-11.9,76.4-15.4c40.1-6.1,80.9-9.3,121.6-9.5c40.8-0.1,81.5,2.7,121.7,8.7
				c5.6,0.8,11.2,1.7,16.7,2.5c5.5,1,11.1,2.1,16.6,3.1c11.1,1.9,22.1,4.6,33.3,7c22.3,5.1,44.6,11.5,67.9,18.2
				c40.7,11.8,80.8,23.6,121.7,30.2c1.3,0.2,2.6,0.4,3.8,0.6l3.8,0.5l7.7,1.1c5.1,0.6,10.3,1.1,15.4,1.7c10.3,0.9,20.6,1.4,31,1.9
				c20.7,1,41.5,1.6,62.2,4.9c0.7,0.1,2.2,0.4,4.1,0.7c1.9,0.4,4.2,0.9,6.8,1.4c0.6,0.1,1.3,0.2,1.9,0.4c0.6,0.2,1.3,0.3,1.9,0.5
				c1.3,0.3,2.6,0.6,3.9,0.9C1186.3,294.3,1188.8,295,1190.9,295.6z"/>
			<path class="st1" d="M1108.4,1101.3c0.2-1,0.4-1.9,0.6-2.9c0.3-0.9,0.1,0.1-0.2,1.6c-0.4,1.5-0.8,3.5-1.2,4.7
				c-0.4,1.7-1,3.5-1.6,5.1c-0.6,1.6-1.1,3-1.6,3.8c-0.9,1.4-1.8,2.6-2,2.3c-0.3-0.4,0.1-1.7,0.9-3.9c0.7-2.2,1.8-5.1,2.4-8.4
				c0.8-3.6,1.3-7.9,1.4-11.8c0.2-3.9,0-7.5-0.1-9.9c-0.2-10.3-1.9-20.8-4-31.4c-2.1-10.6-4.7-21.3-6.7-32.3
				c-1-5.5-1.8-11.1-2.4-16.7c-0.1-1.4-0.3-2.8-0.4-4.2l-0.2-4.2l-0.2-4.2l0-4.2c-0.1-11.3,0.8-22.5,2.5-33.5c0.5-3.1,0.9-6,1.6-8.7
				c0.6-2.8,1.2-5.5,1.9-8.3c2.4-11.7,6.1-24.1,10.5-36.6c4.4-12.4,9.4-24.8,14.3-36.5c2.7-6.5,5.5-13.1,8.3-19.6
				c2.7-6.2,5.4-12.4,8-18.4c7.6-17.5,15.9-36.5,23-56.6c3.6-10,6.9-20.3,9.6-30.7l2-7.8c0.6-2.6,1.1-5.2,1.7-7.9l0.8-3.9
				c0.3-1.3,0.5-2.6,0.7-3.9c0.4-2.6,0.9-5.3,1.3-7.9c0.4-1.9,0.6-3.9,0.8-5.8l0.7-5.8c0.5-3.9,0.8-7.8,1.2-11.6
				c1.7-18.2,2-36.8,1.5-54.5c-0.4-17.7-1.6-34.5-2.7-49.2c-1.5-19.6-3.5-39.5-5.2-59.8c-1.7-20.3-3.2-40.8-3.5-61.6
				c0.1-4.7,0-10.6,0.2-16.6c0.1-3,0.1-6,0.2-9c0.1-2.9,0.3-5.7,0.4-8.3c1.3-26,5.4-54.9,13.3-78.3c1.5-5.2,4.2-11.2,6.5-17.2
				c1.3-3,2.7-6.1,4-9.1c0.7-1.5,1.3-2.9,2-4.2c0.7-1.3,1.3-2.4,1.9-3.4c1.6-2.7,2.7-3.1,4.8-7.5c0.2,1.7,4-3-1.4,9.1
				c-1.9,3.9-3.6,8.2-5.4,12.4c-0.5,1-0.9,2.1-1.4,3.1c-0.5,1-0.8,2.1-1.2,3.1c-0.8,2.1-1.6,4.1-2.3,6.1c-4.6,12.8-8.4,26.9-11,41.9
				c-2.6,15-4.2,30.6-5,46.4c-0.7,15.8-0.7,31.6-0.1,47c0.6,15.4,1.7,30.3,2.8,44.2c1.6,20,4,41.8,5,60c1.7,19,2.8,38.6,3,57.2
				c0.2,14.9-0.2,29.9-1.3,44.9c-1.1,15-3.2,29.9-6.3,44.6c-0.8,3.7-1.5,7.4-2.5,11c-0.5,1.8-0.9,3.7-1.4,5.5l-1.5,5.4l-0.8,2.7
				l-0.8,2.7l-1.7,5.4c-1.2,3.6-2.4,7.1-3.6,10.7c-5,14.2-10.6,28-16.4,41.8c-6.5,15.3-13.3,30.3-19.9,45.6
				c-3.3,7.7-6.6,15.5-9.8,23.4c-3.2,8-6.3,16.1-9.2,24.5c-5.1,14.7-9.3,29.6-12.1,44.6c-0.6,3.8-1.4,7.5-1.8,11.3
				c-0.2,1.9-0.5,3.8-0.7,5.7l-0.5,5.7c-0.1,0.9-0.2,1.9-0.2,2.8l-0.1,2.9l-0.3,5.7l0,5.7l0,2.8l0.1,2.8l0.3,5.7
				c0.1,1.9,0.4,3.8,0.5,5.7c0.3,3.8,0.9,7.5,1.5,11.3c1.2,7.5,2.8,15,4.3,22.4c3,14.9,6.2,30,6.3,45.5c0,1.1-0.1,4.4-0.4,8.2
				C1109.6,1093.9,1109,1098.1,1108.4,1101.3z"/>
			<path class="st1" d="M934.1,1132.3l0.6,0.1c0.3,0.3-0.8-0.2-1.3-0.3c-0.7-0.2-1.6-0.3-1.9-0.5c-0.3-0.3-0.5-0.7-0.4-1
				c0.3-0.8,1.4-0.5,2.9-0.5c1.6,0,3.8-0.2,4.8-0.2c8.7,1.4,18,2.8,27.1,3.6c1.3,0.1,2.3,0.2,3.5,0.6c2.5,0,5.1,0.2,7.8,0.4
				c2.7,0.2,5.5,0.4,8.1,0.5c1.5,0,3,0,4.4,0c1.4,0,2.8,0,4.2,0c7.9,0,17.3-0.3,26.2-1.2c1.6-0.1,3.2-0.4,4.9-0.6
				c1.9-0.2,3.8-0.3,5.7-0.6c1.9-0.3,3.8-0.5,5.6-0.8c3.7-0.5,7.1-1.2,10.1-1.7c8-1.5,16.3-3.7,24.5-6.1c1.9-0.3,4.7-1.2,6.8-1.8
				c5.2-1.5,10.8-3.4,15.9-4.5c1.1-0.2,2.5-0.3,3.9-0.6c1.3-0.3,2.8-0.7,3.9-0.7c0.7,0,1.2,0.7,2.2,0.3c0.1,1,1.8,1.8-0.7,3.2
				c-1.7,0.9-3.8,1.2-5.5,1.6c-5.7,1.5-12,3.4-18.5,5.3c-6.4,1.9-12.9,3.7-18.7,5.1c-4.1,1-8.6,2.3-12.5,2.5c-3.9,1-8,1.6-11.9,2.1
				c-12.5,1.7-25.1,3-37.7,3.1c-7,0-13.9-0.2-21.4-0.8c-13.1-1.1-25.7-2.8-38.3-5.8C937.6,1133.1,935.4,1132.4,934.1,1132.3z"/>
		</g>
		<g id="Woman">
			<g id="Body">
				<path class="st1" d="M486.7,937.7l0.1,1.9c-0.1,1.1-0.2-2.5-0.3-4.1c-0.1-2.2-0.5-4.8-0.4-5.9c0.2-1.1,0.4-2,0.7-1.9
					c0.9,0.1,1.2,3.6,1.8,8.1c0.7,4.8,1.7,11,2,14.1c0.7,13.4,0.8,27.3-0.2,41.4c-0.4,7-1.3,14.1-2.4,21.1c-1.3,7-2.6,14-4.9,20.7
					c-1.1,3.9-2.4,7-4.1,10.3c-3,7.1-7.2,14.5-13.2,20.9c-3,3.1-6.4,6-9.9,8.4c-3.6,2.4-7.3,4.5-11.1,6.3c-2.1,1-4.2,1.9-6.3,2.7
					c-2.1,0.8-4.2,1.6-6.2,2.4c-4,1.5-8,3.1-11.9,4.5c-11.4,4.1-24,8.1-37,11.7c-13.1,3.7-26.5,7.1-39.6,10.4
					c-4.8,1.2-9.6,2.6-14.4,3.7c-11.3,2.8-22.6,5.7-33.4,8.8c-10.8,3-20.8,6.2-29.6,9.2c-23.2,7.9-46.7,18.5-68.2,32.6
					c-5,2.9-12.2,8-17.1,11.9c-6.4,4.9-12.8,10.5-18.7,16.3c-5.9,5.9-11.4,12-16.2,17.9c-2.1,2.6-4.7,5.7-7.1,9
					c-1.2,1.6-2.3,3.5-3.5,5.1c-1.1,1.7-2.1,3.3-2.9,4.4c-1.1,1.6-2.1,1.8-3.5,4.5c-0.4-1.2-3.4,1.7,0.1-6.2
					c2.5-5.2,6.2-10.3,9.4-14.7c10.3-14.2,24.4-28.8,40.5-41c8-6.1,16.4-11.7,24.8-16.7c8.4-5,16.8-9.4,24.9-13.1
					c11.5-5.4,24.3-10.8,35.4-14.1c11.3-4.1,23.2-7.6,34.5-10.7c18.1-5,36.5-9.5,54.7-14.2c18.2-4.7,36.4-9.6,54.2-15.5
					c5-1.6,9.8-3.3,14.7-5.1c4.9-1.8,9.7-3.7,14.7-5.6c4.9-1.9,9.6-4.1,14.1-6.9c2.2-1.4,4.4-3,6.5-4.7c2-1.7,4.1-3.6,5.9-5.6
					c6.4-7.2,11-15.9,14.3-24.8c3.2-9,5.3-18.4,6.7-27.9c2.8-18.9,3.3-38.1,2.7-57.4C487.4,948.5,487.2,941.7,486.7,937.7z"/>
				<path class="st1" d="M1046.4,1189.4l-1.4-1c-0.8-0.8,1.9,1.3,3.2,2.1c1.7,1.2,3.7,2.5,4.5,3.2c0.7,0.8,1.2,1.5,0.9,1.7
					c-0.7,0.6-3.3-1.3-6.9-3.4c-3.9-2.2-9-4.9-11.6-6.3c-20.9-13.1-44.4-25.9-67.8-36.3c-3.3-1.5-6.1-2.7-9.1-4.2
					c-12.8-5.1-27.9-11.1-42-15.7c-3.9-1.2-7.9-2.4-11.9-3.6c-3.8-1.1-7.6-2.2-11.3-3.2c-10.8-2.9-22.6-5.7-34.9-8.3
					c-12.3-2.5-25-4.8-37.5-6.9c-4.6-0.8-9.2-1.4-13.7-2.2c-10.7-1.9-21.6-3.9-31.9-6.3c-10.3-2.4-20-5.3-28.2-8.9
					c-10.9-4.6-21.5-11.1-30.4-19.7c-1.1-1.1-2.3-2.1-3.3-3.3l-3.1-3.4c-2-2.3-4-4.8-5.8-7.3c-3.6-5.1-6.8-10.5-9.5-16.2
					c-1-2.6-2.4-5.9-3.6-9.3c-0.3-0.8-0.6-1.7-0.9-2.5c-0.3-0.9-0.5-1.7-0.8-2.5c-0.5-1.7-1-3.3-1.4-4.8c-2-7.5-3.4-15.6-4.2-23.7
					c-0.3-4-0.7-8-0.6-11.9c0-1.9,0-3.9,0-5.8c0.1-1.9,0.2-3.7,0.3-5.6c0.1-1.6,0.2-3.4,0.4-5.2c0.2-1.8,0.5-3.7,0.7-5.6
					c0.2-1.9,0.4-3.9,0.7-5.8c0.3-1.9,0.6-3.6,0.9-4.9c0.5-1.8,1.3-2.2,1.6-5.1c0.8,0.9,2.6-2.4,2.2,5.4c-0.1,1.3-0.2,2.6-0.3,3.9
					c-0.1,0.7-0.2,1.3-0.2,2l-0.2,2c-0.3,2.7-0.5,5.3-0.8,7.8c-0.2,2-0.2,4-0.3,6.1c0,1-0.1,2.1-0.1,3.1c0,0.5,0,1.1-0.1,1.6
					c0,0.5,0,1.1,0,1.6c0,2.1,0.1,4.3,0.1,6.5c0,2.2,0.3,4.4,0.4,6.6c0.7,8.9,2.1,18,4.6,26.9c2.5,8.9,6,17.4,10.5,25.2
					c2.2,3.9,4.7,7.5,7.3,10.9c0.7,0.8,1.3,1.7,2,2.5c0.7,0.8,1.4,1.6,2.1,2.4c0.7,0.8,1.4,1.5,2.1,2.3c0.7,0.7,1.5,1.4,2.2,2.1
					c2,2.1,4.3,3.9,6.6,5.9l3.6,2.7c1.2,0.9,2.5,1.6,3.7,2.5c5,3.2,10.1,5.9,14.9,8.2c5.1,2.1,10.4,4,15.8,5.5
					c5.4,1.6,10.8,3,16.1,4.2c17,3.8,34.5,6.4,51.8,9.4c17.4,3,34.7,6.3,51.8,10.6c4.8,1.2,9.5,2.5,14.2,3.8
					c4.7,1.4,9.4,2.7,14.1,4.2c4.7,1.4,9.5,3.1,14.3,4.7c2.4,0.8,4.8,1.7,7.2,2.6c2.4,0.9,4.9,1.8,7.3,2.7c2.1,0.8,4.3,1.7,6.4,2.5
					c2.1,0.9,4.2,1.7,6.4,2.6c2.1,0.9,4.2,1.7,6.3,2.7c2.1,0.9,4.2,1.8,6.3,2.7c8.3,3.7,16.4,7.6,24.4,11.7
					c16,8.2,31.5,17.2,46.6,27.2C1037.9,1183.8,1043.1,1187.4,1046.4,1189.4z"/>
				<path d="M400.2,1078.4c16.2,20.3,54.7,62.1,117.3,79.4c84.2,23.2,178.1-7.4,245.2-77.3c13.4,4.9,26.8,9.8,40.2,14.7
					c-87.7,97.5-213,136.6-316,99.3c-68-24.6-107.6-75.8-125.3-102.8C374.5,1087.3,387.4,1082.9,400.2,1078.4z"/>
			</g>
			<g id="Head">
				<path class="st1" d="M761.1,796.3L761,798c-0.3,1,0.2-2.3,0.2-3.8c0.2-2,0.2-4.4,0.3-5.5c0.3-1,0.6-1.8,1-1.7
					c0.8,0.2,0.7,3.5,0.8,7.6c0.1,2.2,0.1,4.8,0.1,7.2c0,2.4,0,4.6-0.1,6c-0.6,6.2-1.5,12.5-2.6,18.8c-1.1,6.3-2.6,12.6-4.2,19
					c-3.4,12.6-7.8,25.1-13.1,36.8c-1.6,3.3-2.9,6.1-4.5,9c-2.9,6.3-6.4,13.1-10.6,19.6c-2.1,3.3-4.4,6.5-6.8,9.5
					c-1.2,1.6-2.5,3-3.7,4.5c-1.2,1.5-2.5,2.9-3.8,4.3c-1.4,1.5-2.8,3.1-4.3,4.6c-1.5,1.5-3,2.9-4.5,4.4c-0.7,0.7-1.5,1.4-2.2,2
					c-0.8,0.7-1.5,1.3-2.3,2c-1.5,1.3-3,2.6-4.5,3.8c-8.8,7.1-19.2,13.9-30.7,19.4c-11.4,5.6-23.9,9.9-36.3,12.5l-3.4,0.7l-1.7,0.4
					l-1.7,0.3c-2.3,0.4-4.6,0.7-6.9,1c-10.9,1.1-22.1,1.1-32.6,0.1c-10.5-1.2-20.3-3.6-28.7-6.3c-11.1-3.6-21.9-8.7-32.3-14.8
					c-1.3-0.8-2.6-1.5-3.9-2.3c-1.3-0.8-2.5-1.6-3.8-2.5c-2.6-1.6-5-3.4-7.5-5.2c-4.9-3.6-9.7-7.4-14.2-11.5
					c-3.9-3.8-10-9.6-14-14.1c-5.1-5.7-10.1-12.1-14.6-18.7c-4.4-6.6-8.3-13.5-11.3-20c-1.3-2.9-2.6-6.5-4-10
					c-1.3-3.5-2.8-7.6-3.3-10.2c-0.4-1.8,0.2-2.5-0.7-5.2c1.2,0.4,1.3-3.2,4.2,3.9c2,4.7,3.7,10,5.7,14.5
					c3.1,7.2,7.1,14.7,11.9,22.1c4.8,7.4,10.3,14.6,16.5,21.4c1.6,1.6,3.1,3.3,4.7,5c1.6,1.6,3.3,3.2,4.9,4.7
					c3.4,3.1,6.7,6.1,10.2,8.9c6.9,5.6,14,10.6,20.9,14.7c4.9,3,10.3,5.7,15.7,8.3c1.3,0.7,2.7,1.2,4,1.8c1.3,0.6,2.7,1.1,4,1.7
					c1.3,0.6,2.6,1,3.9,1.5c1.3,0.5,2.5,1,3.7,1.5c10.5,3.3,21.5,5.6,32.2,6.5l6.4,0.4c2.1,0.1,4.3,0,6.4,0
					c4.3,0.1,8.6-0.4,12.9-0.7c8.5-1,17.1-2.4,25.3-4.9l3.1-0.9c1-0.3,2-0.7,3.1-1l6.1-2.1c4-1.7,8-3.2,11.8-5.1l2.9-1.4l1.5-0.7
					l1.4-0.8l5.7-3.1c1.9-1.1,3.7-2.3,5.5-3.4c0.9-0.6,1.8-1.1,2.7-1.7l2.6-1.8c7.8-5.4,15.2-11.5,22-18.3
					c6.8-6.9,13.1-14.4,18.6-23.1c4.8-7.6,8.9-15.6,12.7-23.7c3.8-8,7.3-16.2,10.1-24.6c5.8-16.7,9.8-34,12-51.7
					c0.1-0.6,0.4-2.5,0.7-4.7C760.9,800.7,761.1,798.2,761.1,796.3z"/>
				<g id="Mouth">
					<path class="st1" d="M682.6,862l-0.5,0.4c-0.4,0.1,0.6-0.5,1-0.8c0.6-0.4,1.2-1,1.6-1.2c0.4,0,0.9,0,1.1,0.3
						c0.5,0.7-0.4,1.4-1.4,2.6c-0.5,0.6-1.1,1.4-1.6,2.1c-0.5,0.7-1.1,1.3-1.4,1.7c-7,5.6-15.4,10.5-23.9,14.3
						c-1.2,0.5-2.2,1-3.4,1.3c-4.5,2.3-10.1,3.9-15.3,5.5c-1.4,0.4-2.9,0.9-4.3,1.3c-1.4,0.4-2.8,0.7-4.1,1c-3.9,1-8.2,1.8-12.7,2.5
						c-4.5,0.7-9.1,1.2-13.6,1.5c-1.6,0.1-3.3,0.4-4.9,0.4c-7.8,0.2-15.7,0.2-21.9-0.1c-8.2-0.5-16.8-1.1-25.4-2.3
						c-1.9-0.5-4.8-0.9-6.9-1.4c-5.3-1-11.2-2.3-16-4.2c-1.1-0.4-2.3-1.1-3.5-1.7c-1.2-0.6-2.7-1.1-3.5-1.7
						c-0.6-0.4-0.6-1.2-1.5-1.5c0.5-0.8-0.4-2.5,2.4-2.1c1.8,0.2,3.6,1.2,5.3,1.8c5.3,1.9,11.7,3.5,18.1,4.7
						c6.4,1.2,12.9,2,18.7,2.6c2.1,0.2,4.2,0.3,6.3,0.5c2.1,0.2,4.2,0.3,6,0.6c3.9,0,7.9,0.2,11.8,0.2c12.2,0,24.6-1.3,36.5-3.8
						c6.7-1.4,13.1-3.1,20.1-5.4c12.1-4.1,23.3-9.7,33.8-16.8c0.2-0.1,0.8-0.4,1.5-0.8C681.5,863.1,682.2,862.5,682.6,862z"/>
					<path class="st1" d="M657.2,877.2l-0.4-0.2c-0.1-0.3,0.5,0.2,0.8,0.4c0.4,0.2,1,0.4,1.1,0.7c0.1,0.3,0.1,0.7-0.1,1
						c-0.4,0.8-1.1,0.4-2.1,0.2c-1.1-0.2-2.5-0.2-3.2-0.3c-5.3-2.1-11-4.2-16.7-5.6c-0.8-0.2-1.5-0.4-2.2-0.8
						c-3.1-0.3-6.7-1.3-10.1-1.8c-0.9-0.1-1.9-0.1-2.8-0.2c-0.9-0.1-1.8-0.1-2.7-0.2c-1.3-0.1-2.6-0.1-4-0.2c-1.4-0.1-2.8,0-4.2,0
						c-2.9,0-5.8,0.3-8.6,0.5c-1,0.1-2.1,0.4-3.1,0.5c-2.5,0.2-4.9,0.8-7.2,1.2c-1.2,0.2-2.3,0.6-3.4,0.9c-1.1,0.3-2.1,0.5-3.1,0.8
						c-5.1,1.5-10.1,3.7-15,6.2c-0.6,0.2-1.3,0.5-2.1,0.8c-0.7,0.3-1.4,0.7-2.1,1c-3.1,1.5-6.4,3.5-9.7,4.6
						c-0.7,0.3-1.7,0.4-2.5,0.7c-0.9,0.3-1.8,0.7-2.5,0.8c-0.5,0-1.1-0.5-1.7-0.2c-0.4-0.9-1.9-1.5-0.6-2.9c0.9-0.9,2.3-1.3,3.4-1.8
						c7.1-3.3,15.8-8.2,23.1-11c1.3-0.5,2.7-1.1,4-1.6c1.4-0.5,2.7-0.9,4-1c1.2-0.5,2.6-0.9,3.9-1.2c0.7-0.2,1.3-0.3,1.9-0.5
						c0.7-0.1,1.3-0.3,1.9-0.4c8.2-1.7,16.6-2.7,25-2.4c4.7,0.2,9.2,0.7,14.1,1.8c8.5,1.8,16.6,4.5,24.1,8.6
						C655,876.2,656.3,877,657.2,877.2z"/>
					<path class="st1" d="M654.5,882.5l-0.2,0.4c-0.3,0.2,0.2-0.6,0.4-0.9c0.2-0.5,0.4-1.1,0.6-1.3c0.3-0.1,0.7-0.2,1-0.1
						c0.8,0.4,0.4,1.1,0.2,2.3c-0.1,0.6-0.1,1.4-0.2,2c-0.1,0.7-0.2,1.3-0.3,1.7c-0.4,0.8-0.7,1.6-1.1,2.3c-0.4,0.8-0.8,1.5-1.3,2.3
						l-0.7,1.2l-0.7,1.1c-0.5,0.7-1,1.5-1.5,2.2l-1.6,2.1l-0.8,1.1l-0.9,1c-0.6,0.7-1.2,1.3-1.8,2c-0.6,0.6-1.3,1.3-1.9,1.9
						c-0.4,0.4-0.7,0.7-1,1c-0.4,0.3-0.7,0.5-1.2,0.7c-2.6,2.9-6.5,5.2-10.1,7.2c-1,0.6-2,1.2-3,1.7c-1,0.5-2,1-3,1.4
						c-5.7,2.5-12.9,4.3-19.9,4.6c-1.3,0-2.6,0.2-3.8,0.2c-6-0.2-12.1-1.2-16.7-2.7c-6.1-1.8-12.2-4.5-17.8-8.3
						c-0.5-0.5-1.3-1.1-2.1-1.7c-0.8-0.6-1.5-1.3-2.1-1.8c-1.6-1.3-3.1-3-4.6-4.6c-1.3-1.7-2.7-3.4-3.5-5.2
						c-0.4-0.8-0.7-1.8-1.1-2.8c-0.3-1-0.9-2-0.9-2.8c0-0.6,0.5-1.1,0.2-1.7c0.9-0.3,1.6-1.8,3-0.3c0.9,0.9,1.2,2.5,1.8,3.6
						c1.8,3.7,4.9,7.3,8.5,10.4c3.6,3.1,7.7,5.6,11.4,7.4c1.4,0.6,2.8,1.2,4.2,1.8c1.5,0.5,2.8,1.1,4.1,1.7c1.4,0.2,2.8,0.7,4.2,0.9
						c0.7,0.1,1.4,0.3,2.1,0.4c0.3,0.1,0.7,0.2,1,0.2c0.3,0,0.7,0.1,1,0.1c4.4,0.7,8.9,0.7,13.3,0.2c4.4-0.5,8.8-1.5,13-3
						c4.7-1.7,9.1-3.8,13.5-6.9c7.8-5.3,13.9-12.3,18.5-20.5c0.1-0.1,0.4-0.5,0.8-1C654.1,883.6,654.4,883,654.5,882.5z"/>
				</g>
				<g id="Sleeping_mask">
					<path class="st1" d="M771.2,753.6c-0.3,1.3-0.5,2.6-0.8,3.9c-0.4,1.1,0-0.1,0.4-2.2c0.2-1,0.5-2.2,0.7-3.4
						c0.1-1.2,0.3-2.3,0.4-3.1c0.1-0.6,0.1-1.2,0.2-1.8c0-0.6,0-1.2,0.1-1.8c0-1.2,0.1-2.4,0.1-3.6c0-1.1-0.1-2.2-0.1-3.2
						c0-0.5,0-0.9,0-1.3c0-0.4-0.1-0.8-0.1-1.1c0-2.3,0.1-4.2,0.4-4.1c0.4,0.2,0.9,2.2,1.4,5.4c0.1,0.8,0.1,1.7,0.2,2.6
						c0,0.9,0.2,1.9,0.1,3c0,2.1,0,4.5-0.3,6.9c-0.4,5.3-1.5,11.3-3.2,16.7c-0.4,1.4-0.9,2.6-1.4,3.9c-0.2,0.6-0.5,1.2-0.7,1.8
						c-0.2,0.6-0.5,1.2-0.8,1.7c-0.5,1.1-1,2.2-1.4,3.1c-0.5,1-1,1.8-1.4,2.6c-3.8,6.4-8.5,12.4-14.2,17.5c-0.7,0.7-1.4,1.2-2.2,1.8
						l-2.2,1.8c-1.5,1.1-3.2,2.2-4.7,3.3c-1.7,0.9-3.3,1.9-5,2.8l-2.6,1.2c-0.9,0.4-1.7,0.9-2.7,1.2c-14.4,5.8-30.7,6.9-45.9,3.1
						c-7.6-1.9-15-5.1-21.6-9.4c-6.7-4.3-12.3-9.7-17.7-14.9c-5.4-5.3-10.6-10.6-16.3-15.1c-5.6-4.5-11.7-8.2-18.3-9.7
						c-1.9-0.4-3.7-0.8-5.5-0.8c-0.9,0-1.8-0.1-2.6-0.1c-0.9,0.1-1.7,0.1-2.6,0.2c-3.4,0.3-6.8,1-10.2,2.3
						c-3.5,1.4-6.9,3.3-10.2,5.5c-3.3,2.2-6.5,4.7-9.7,7.5c-6.3,5.5-12.3,11.8-18.7,18.1c-12.8,12.5-27.1,24.3-42.9,32.2
						c-8.8,4.4-18.3,7.9-28.1,9.5c-9.4,1.6-19.1,1.3-28.2-0.7c-6.6-1.4-13.2-3.7-19.4-6.7c-6.3-3.1-12.3-7-17.9-11.5
						c-11.2-9.1-20.7-20.9-27.3-34.4c-6.7-13.4-10.6-28.2-12.4-43.2c-1.8-15-1.4-30.1,0.5-44.7c0.7-5.4,1.6-10.8,2.8-16.1
						c1.2-5.3,2.7-10.6,4.6-15.7c4.4-12.1,10.9-23.7,19.9-33.1c9-9.4,20.3-16.2,31.8-20.8c11.5-4.6,23.3-7.3,34.6-8.9
						c11.3-1.6,22.1-2.2,32.2-2.7c13.4-0.6,26.8-1.1,40.1-2.7c13.3-1.6,26.6-4.4,40-7.4c13.4-3,26.9-6.4,40.7-8.9
						c6.9-1.3,13.9-2.4,20.9-3.1c7.1-0.8,14.2-1.1,21.3-1.1c6.4,0.2,14.5,0.7,22.7,2.1c8.2,1.4,16.4,3.7,23.1,6.3
						c8.4,3.4,16.6,8.1,24,14c3.6,3,7.1,6.3,10.2,9.8c3.1,3.6,6,7.3,8.6,11.2c10.5,15.7,16.4,33.4,19.5,49.9
						c1.4,7.3,2.4,16.1,3.1,24.8c0.7,8.7,1.3,18.8,1.2,24.9c0,4.3-0.7,5.5-0.4,12.1c-1-1.8-2,6.4-3.3-11.8c-0.9-12-1.5-25.1-3-36.4
						c-1.2-9.1-3.1-18.5-5.9-27.9c-1.4-4.7-3.1-9.3-5.1-13.9c-1.9-4.6-4.2-9.1-6.8-13.5c-5.2-8.8-11.6-17-19.5-23.8
						c-0.5-0.4-1-0.9-1.5-1.3l-1.5-1.2l-1.5-1.2c-0.5-0.4-1.1-0.7-1.6-1.1l-3.2-2.2c-1.1-0.7-2.3-1.3-3.4-2l-1.7-1
						c-0.6-0.3-1.2-0.6-1.8-0.9l-3.5-1.8l-3.6-1.5l-1.8-0.8l-1.9-0.7l-3.7-1.3l-3.8-1.1c-0.6-0.2-1.3-0.4-1.9-0.5l-1.9-0.4
						c-1.3-0.3-2.6-0.6-3.9-0.9c-2.6-0.4-5.2-1-7.8-1.3c-1.3-0.2-2.6-0.4-3.9-0.5l-4-0.3c-1.3-0.1-2.6-0.2-4-0.3l-4-0.2l-4,0l-2,0
						l-2,0.1c-1.3,0-2.6,0.1-3.9,0.1c-1.3,0.1-2.6,0.2-3.9,0.2c-2.6,0.1-5.2,0.4-7.8,0.7c-20.7,2.3-40.4,7.2-58.9,11.4
						c-13.3,3-27.3,6.1-41.2,7.8c-13.9,1.7-27.6,2.1-39.9,2.5c-12.9,0.7-26,1.6-38.7,3.7c-12.7,2.2-25.1,5.7-36.2,11.3
						c-8.9,4.5-17.1,10.4-23.7,17.8c-6.6,7.4-11.8,16.1-15.5,25.3c-3.8,9.2-6.3,19-8,28.9c-0.8,5-1.4,10-1.8,15
						c-0.2,2.5-0.4,5-0.5,7.5l-0.1,3.8l0,3.8c-0.1,10.1,0.9,20.1,2.7,30l0.8,3.7l0.4,1.8l0.5,1.8l0.9,3.6l1.1,3.6l0.5,1.8l0.6,1.8
						l1.3,3.5l1.4,3.5l0.7,1.7l0.8,1.7l1.6,3.4l1.8,3.3l0.9,1.7l1,1.6l1.9,3.2l2.1,3.1l1.1,1.5l1.1,1.5l2.3,2.9l2.5,2.8
						c6.6,7.5,14.5,13.8,23,18.9c4.8,2.7,9.8,5.1,15,6.8c1.3,0.5,2.6,0.8,3.9,1.2l2,0.6l2,0.4c1.3,0.3,2.7,0.6,4,0.8l4.1,0.5
						c10.9,1,22.1-0.4,32.7-4.1c2.7-0.8,5.2-2,7.8-3c1.3-0.6,2.5-1.2,3.8-1.8c0.6-0.3,1.3-0.6,1.9-0.9l1.9-1c5-2.6,9.8-5.8,14.6-9.1
						c4.7-3.3,9.2-7,13.7-10.9c4.4-3.9,8.8-8,13-12.2c7.5-7.5,14.9-15.1,23.5-21.4c4.3-3.1,8.9-5.9,13.9-8c5-2,10.3-3.2,15.7-3.2
						c5.4,0,10.8,1.3,15.6,3.5c4.9,2.2,9.3,5.2,13.3,8.6c8.1,6.7,15.1,14.5,22.7,21.4c3.8,3.5,7.8,6.7,12.2,9.3
						c4.4,2.6,9,4.8,13.9,6.4c4.9,1.5,9.9,2.6,15,3.2c5.1,0.5,10.2,0.4,15.3-0.1c10.2-1.2,20.1-4.5,28.8-10.1
						c4.4-2.7,8.3-6.1,11.8-9.8c0.9-1,1.8-1.8,2.6-2.9l2.4-3c1.5-2.1,3.1-4.2,4.3-6.4c0.4-0.6,1.3-1.8,2.1-3.6
						c0.4-0.9,0.9-1.8,1.5-2.8c0.5-1,1-2.2,1.5-3.4C769.1,763.6,770.7,758,771.2,753.6z"/>
					<g>
						<path d="M425.1,824.1c-0.8,1.6-4.8,11-0.6,21.3c0.7,1.7,4.6,11.1,14,13.9c11.2,3.3,21.8-5.3,26.7-11.9c3-4.1,4.4-8.3,5.1-11.1
							"/>
					</g>
					<g>
						<path d="M472.6,835.6c1.9,11.5,13.8,20.5,25.4,19.2c13.4-1.5,20.1-14.9,20.6-24.3c0.2-3.5-0.5-6.5-1.2-8.6"/>
					</g>
					<g>
						<path d="M518.7,822.6c1.5,1.9,6.8,8,15,8.8c12.2,1.3,25.2-9.6,25.1-21.6c0-7.9-5.8-13.6-7.5-15.2"/>
					</g>
					<g>
						<path d="M552.6,793.8c6.3,6,15.4,7.9,23,4.6c9.6-4,14.1-14.8,12.3-23.5c-0.9-4.5-3.4-7.7-4.9-9.3"/>
					</g>
					<g>
						<path d="M587.4,764.1c2.3,14.6,14.2,24.6,26.2,24.1c12.8-0.5,20-12.8,20.5-13.6c-2.2-2.6-9.4-10.4-21.9-13.2
							C600.1,758.8,590.5,762.7,587.4,764.1z"/>
					</g>
					<g>
						<path d="M634.1,776.1c-8.6,10-6.7,27.2,4,35c10.7,7.8,27.7,4.4,34.5-6.9"/>
					</g>
					<g>
						<path d="M671.8,806c-1.9,10.5,2.8,20.8,11.5,25.6c11.3,6.3,22.8-0.3,23.4-0.6c10.9-6.4,11.7-18.6,11.8-19.6"/>
					</g>
					<g>
						<path d="M719,813.5c6.1,9.8,20,12.3,30.8,8.3c6.9-2.6,14-8.3,16.7-17.3c3.4-11.6-2.7-21-3.5-22.3"/>
					</g>
					<g>
						<path d="M762,781.9c2.5,0.8,9,2.5,16.5,0c2.4-0.8,7.4-2.5,11-7.4c3.5-4.8,5.5-12.4,2.1-19.6c-3.2-6.7-10.1-10.9-17.7-10.7"/>
					</g>
					<g>
						<path d="M775.6,697.8c1.1,0.2,12.7,2.1,17.6,12.5c5.4,11.4-2.1,22.4-3.2,24c-5.6,7.9-14,10.1-16.3,10.6l-0.8-12.4l3.4-0.4
							L775.6,697.8z"/>
					</g>
					<g>
						<path d="M773.7,696.9c2.2-1,12-5.9,16.2-17.4c0.8-2.3,4.3-11.7-0.1-21.2c-4.5-9.5-15.3-15.4-27.3-15.2"/>
					</g>
					<g>
						<path d="M763.6,640.6c12-8.3,15.3-24.1,8.9-35c-7.3-12.5-26-16.7-39.5-6.5"/>
					</g>
					<g>
						<path d="M731.2,598.1c0.4-0.8,7-14.1-0.7-27c-0.4-0.6-7.2-11.6-20.4-13.2c-1.9-0.2-7.1-0.6-12.9,1.6
							c-12.8,5-17.1,18.2-17.7,20.3"/>
					</g>
					<g>
						<path d="M678.7,578.5c0.2-1.6,1-12.3-7-20.5c-1.2-1.3-8.5-8.5-19.1-7.6c-6.5,0.6-10.8,3.9-12.1,4.9
							c-10.6,8.3-9.9,22.7-9.8,24.5"/>
					</g>
					<g>
						<path d="M631.1,580.9c-0.4-1.6-4.9-17.3-19.7-22.3c-1.9-0.6-10.1-3.4-17.9,0.4c-9.8,4.7-15.4,17.6-13,31.9"/>
					</g>
					<g>
						<path d="M580,592.4c-6.4-20.4-27.6-29.6-42.4-23.2c-11.1,4.8-18.3,18.2-16.9,32.9"/>
					</g>
					<g>
						<path d="M517.2,600.2c1-10.9-4.5-21.3-13.9-26.4c-9.8-5.3-21.1-3.4-28.9,2.2c-9.2,6.7-13.5,18.7-10.6,30.2"/>
					</g>
					<g>
						<path d="M463.1,605c-6.3-13.7-21.6-20.4-34.7-16.3c-14.9,4.7-23.7,22.2-17.7,38.4"/>
					</g>
					<g>
						<path d="M410.7,627.1c-1.5-1.7-6.3-7-13.8-7.8c-10.6-1.1-20,7.2-23.1,16.3c-0.4,1.2-4.5,13.5,3.2,21.4c3.9,4,8.9,5,11.1,5.2"
							/>
					</g>
					<g>
						<path d="M387.9,663.8c-13.4-3.4-27,5.1-29.9,18.2c-2.9,13.4,6.2,27,20.1,29.2"/>
					</g>
					<g>
						<path d="M378,713.4c-15.3,0.3-26.4,13.9-24.5,27.4c1.8,12.8,15,22.6,29.2,20"/>
					</g>
					<g>
						<path d="M381.1,761.1c-9,3.1-15.3,10.7-16.2,19.4c-0.1,1-1,11.1,6.5,17.6c7,6.1,18.4,6.5,27.6,0.4"/>
					</g>
					<g>
						<path d="M399,798.5c-9.2,8.1-10.8,20.6-5.3,28.1c3.6,4.9,10.1,7.7,16.6,7.1c9.7-0.9,14.4-8.9,14.8-9.6"/>
					</g>
					<g id="Instagram_logo">
						<path class="st1" d="M692.3,617.2l0.1,0.6c-0.2,0.4-0.1-0.8-0.1-1.4c0-0.7-0.2-1.6-0.1-2c0.2-0.4,0.5-0.7,0.9-0.7
							c0.9,0,0.9,1.2,1.3,2.7c0.5,1.6,1.3,3.5,1.6,4.6c0.7,4.4,1.6,8.8,2.5,13.5c0.4,2.3,0.9,4.8,1.1,7.4c0.2,2.6,0.1,5.4-0.8,8.3
							c-0.1,0.4-0.3,0.8-0.4,1.1c-0.1,0.3-0.3,0.6-0.5,1c-0.3,0.7-0.8,1.3-1.3,1.9c-0.8,1.4-2,2.7-3.5,3.8c-1.5,1-3.1,1.6-4.5,2.1
							c-2.8,0.9-5.6,1.6-8.4,2.2c-1.5,0.3-3.1,0.7-4.6,1c-1.5,0.2-3,0.4-4.4,0.6c-4.2,0.5-8.8,0.6-13.6,0.4
							c-2.4-0.1-4.7-0.4-7.2-0.7c-1.3-0.2-2.6-0.5-4.1-1.1c-1.4-0.6-3-1.7-4-3.2c-1.5-2.2-1.9-4.3-2.1-6.1c-0.9-8-1.3-16.2-1.1-22.7
							c0-2.1,0.1-4.3,0.2-6.5c0.1-1.1,0.1-2.2,0.2-3.3c0.1-1.1,0.2-2.3,0.5-3.7c0.3-1.3,0.8-2.8,1.9-4.2c0.3-0.3,0.6-0.7,0.9-1
							c0.3-0.3,0.6-0.5,1-0.8c0.7-0.5,1.4-0.8,2.1-1.1c0.7-0.3,1.5-0.5,2.2-0.6l1.7-0.3l3.3-0.5c2,0,5-0.5,7.1-0.8
							c5.5-0.7,11.5-1.5,16.8-1.4c1.2,0,2.6,0.2,4,0.3c1.4,0.1,3,0,4,0.3c0.7,0.2,1,0.9,2,0.9c-0.2,1,1.3,2.2-1.5,2.9
							c-1.8,0.5-4,0.2-5.8,0.3c-5.9,0.1-12.6,0.8-19.3,1.7c-3.4,0.4-6.7,0.9-10,1.4l-1.2,0.2c-0.4,0.1-0.7,0.1-1,0.2
							c-0.6,0.2-1.2,0.4-1.7,0.8c-0.5,0.4-0.8,0.7-1.1,1.2c-0.3,0.5-0.5,1-0.7,1.6c-0.2,0.9-0.3,1.9-0.4,2.9
							c-0.1,1.1-0.1,2.2-0.2,3.3c-0.1,2.2-0.2,4.3-0.5,6.2c0.2,4,0.1,8.2,0.3,12.1c0.2,3.1,0.4,6.3,0.8,9.4c0.2,1.6,0.4,3,1,4.1
							c0.5,1.1,1.4,1.8,2.6,2.3c1.2,0.5,2.7,0.7,4.3,0.8c1.5,0.2,3.1,0.3,4.7,0.4c3.1,0.2,6.2,0.2,9.3,0c6.9-0.4,13.7-1.5,20.8-3.8
							c1.5-0.5,2.9-1.1,3.9-2c1.1-0.9,1.9-2.2,2.6-3.6c1.3-2.7,1.4-5.9,1.1-9.1c-0.3-3.2-0.9-6.4-1.4-9.6c-0.5-3.2-0.9-6.5-1.2-9.7
							C692.6,620.9,692.6,618.6,692.3,617.2z"/>
						<path class="st1" d="M674.1,619.3c0.1,0,0.2,0,0.3,0.1c0.1,0.2-0.3-0.1-0.6-0.1c-0.3-0.1-0.7,0-0.8-0.1
							c-0.2-0.3-0.3-0.6-0.3-0.9c0-0.9,0.6-0.9,1.5-1.1c0.5-0.1,1-0.2,1.6-0.3c0.5,0,1.1-0.1,1.4,0c2.6,0.9,4.5,2.7,6,4.7
							c0.7,1,1.4,2,1.9,3.1c0.5,1.1,1,2.2,1.4,3.4c0.2,0.7,0.3,1.3,0.2,2c0.4,1.4,0.4,3.1-0.1,4.8c-0.5,1.7-1.4,3-2.2,4.1
							c-0.4,0.6-0.8,1.2-1.2,1.8c-0.4,0.5-0.8,1-1.2,1.6c-0.6,0.8-1.4,1.6-2.3,2.4c-0.9,0.8-2,1.5-3.3,2.1c-2.4,1.1-5.1,1.3-7.4,1.1
							c-0.9-0.1-1.7-0.1-2.6-0.2c-1.9-0.5-3.9-1.1-5.7-2.1c-1.8-1-3.4-2.4-4.5-4.1c-0.7-1.1-1.2-2.4-1.4-3.6
							c-0.2-1.2-0.3-2.4-0.3-3.5c0.1-2.2,0.4-4.4,1.2-6.6c0.6-0.9,1.2-2.3,1.9-3.3c0.8-1.2,1.9-2.4,3.1-3.3c1.2-0.9,2.6-1.6,4-1.8
							c0.6-0.1,1.4,0,2.1,0.1c0.7,0.1,1.5,0.1,2,0.4c0.3,0.2,0.5,1,0.9,1c0,0.9,0.4,2.3-0.4,2.7c-0.5,0.3-1.2-0.1-1.9,0
							c-2.1,0.1-4.4,1.5-5.8,3.7c-1.5,2.2-2.1,4.9-2.2,7.3c0,0.8,0.1,1.7,0.2,2.4c0.2,0.8,0.4,1.4,0.5,2.1c0.9,1.1,2,2.1,3.4,2.8
							c2.2,1.1,4.8,1.6,7.3,1.5c1.2-0.1,2.4-0.3,3.5-0.8c1.1-0.4,2-1.1,2.9-2c1-1,1.9-2.1,2.9-3.3c0.9-1.2,1.8-2.3,2.1-3.6
							c0.7-2.3-0.1-5.1-1.2-7.5c-0.6-1.2-1.3-2.4-2.1-3.4c-0.8-1-1.8-2-3-2.6C675.6,619.7,674.7,619.2,674.1,619.3z"/>
					</g>
					<g id="Like_mask">
						<path class="st1" d="M474.1,733.7l-1.3,0.4c-0.9,0,1.7-0.6,2.9-0.9c1.6-0.5,3.4-1.2,4.2-1.3c0.8,0,1.6,0.1,1.6,0.4
							c0.1,0.9-2.3,1.9-5.3,3.3c-3.3,1.5-7.4,3.6-9.5,4.5c-4.7,1.6-9.4,3.2-14.4,4.8c-1.3,0.4-2.5,0.8-3.9,1.1
							c-1.3,0.3-2.8,0.6-4.4,0.8c-0.8,0.1-1.5,0.1-2.1,0.1c-0.7,0-1.4,0-2.1,0c-1.4,0-2.8-0.1-4.2-0.2c-2.8-0.3-5.7-0.8-8.5-1.8
							c-2.8-1-5.5-2.4-7.9-4.4c-0.6-0.5-1.2-1-1.7-1.5c-0.5-0.6-1.1-1.1-1.6-1.7c-1-1.2-1.8-2.4-2.6-3.7c-1.5-2.6-2.5-5.3-3.3-7.9
							c-0.9-3-1.3-5.5-1.6-8.2c-1.3-5.5-2.1-11.7-2.4-17.9c-0.3-6.3-0.2-12.6,0.3-18.7c0.2-3.4,0.5-6.8,1-10.1
							c0.5-3.2,1.1-6.8,2.8-10.1c0.6-1.2,1.4-2.4,2.3-3.5c0.9-1.1,1.9-2.1,3-2.9c2.1-1.7,4.3-3,6.4-4.2c4.3-2.5,8.8-4.8,13.5-6.9
							c9.4-4.2,19.3-7.5,29-10.3c3.6-1,7.1-2.1,10.7-3c4.2-1,8.4-2.1,12.6-3.1c4.2-1,8.4-2.1,12.5-2.9c4.2-0.8,8.3-1.5,12.3-1.8
							c4-0.3,8-0.3,11.6,0c1.2,0.1,2.4,0.3,3.7,0.5c1.3,0.2,2.6,0.5,4,1c2.7,1,5.2,2.7,7.1,4.9c1.9,2.3,3.1,4.9,3.8,7.5
							c0.4,1.3,0.6,2.6,0.8,3.9c0.2,1.2,0.3,2.3,0.5,3.5c1.4,9.2,3.5,18.5,5.5,27.9c0.6,4.3,2.1,10.7,3.1,15.4c0.6,2.9,1.3,5.9,2,9
							c0.2,0.8,0.4,1.6,0.5,2.6c0.1,1,0.1,2.2,0,3.2c-0.1,1-0.5,1.9-0.7,2.8c-0.2,0.9-0.6,1.7-1,2.6c-1.6,3.3-4.1,6-6.6,8.1
							c-2.6,2.1-5.3,3.7-8,4.9c-2.4,1.1-5.4,2.1-8.3,3c-2.9,0.9-6.3,1.9-8.4,2.1c-1.5,0.2-2.1-0.5-4.3,0.1c0.3-1.1-2.6-1.6,3.1-3.7
							c3.8-1.4,8.1-2.5,11.6-3.9c2.8-1.2,5.7-2.6,8.4-4.4c2.7-1.8,5.1-4,6.9-6.6c0.2-0.3,0.5-0.7,0.6-1l0.5-1.1
							c0.4-0.7,0.6-1.5,0.8-2.2c0.5-1.6,0.5-2.7,0.1-4.5c-0.8-3.5-1.7-7.2-2.5-10.8c-3.1-14.5-6.5-29-8.5-42
							c-0.2-1.2-0.4-2.4-0.5-3.5c-0.2-1.2-0.4-2.3-0.6-3.3c-0.5-2.1-1.4-4.1-2.7-5.7c-1.3-1.6-2.9-2.8-4.8-3.5
							c-0.9-0.4-1.9-0.7-2.9-0.9c-1-0.2-2.1-0.4-3.1-0.6c-8.6-0.7-17.5,0.6-25.9,2.5c-6.7,1.5-13.5,3.3-20.2,5.1
							c-6.7,1.8-13.4,3.7-20,5.8c-6.6,2.1-13.1,4.6-19.4,7.3c-3.1,1.4-6.3,2.9-9.3,4.5l-2.3,1.2c-0.8,0.4-1.5,0.9-2.2,1.3
							c-1.5,0.9-3,1.7-4.3,2.7c-1.5,1-2.9,2.2-3.9,3.5c-1,1.3-1.8,2.8-2.4,4.5c-1.1,3.4-1.5,7.2-2,11.1c-0.9,7.7-1.1,15.6-0.6,23.8
							c0.4,7.2,1.4,14.3,2.9,21.2c0.8,3.4,1.9,6.8,3.5,9.7c1.7,3,4.1,5.4,6.9,7.2c5.8,3.5,13.2,4.2,20,3.6c1.7-0.2,3.4-0.7,5.1-1.1
							c1.7-0.5,3.4-0.9,5.1-1.4c3.4-1,6.8-2,10.3-3.1C466.4,736.2,471.3,734.9,474.1,733.7z"/>
						<path class="st1" d="M517.4,755.2c-0.1,0-0.1-0.1-0.2-0.1c0-0.2,0.2,0.1,0.4,0.2c0.2,0.1,0.4,0.2,0.5,0.4
							c0,0.3-0.1,0.6-0.3,0.9c-0.5,0.7-0.7,0.5-1.3,0.6c-0.6,0.1-1.4,0.3-1.8,0.3c-2.5-1.1-4.9-2.5-7.4-3.9
							c-0.3-0.2-0.6-0.4-0.8-0.7c-1.5-0.4-2.8-1.6-4.2-2.5c-0.4-0.2-0.8-0.4-1.2-0.6c-0.4-0.2-0.7-0.4-1.1-0.6
							c-2.1-1.2-4.5-2.7-6.8-4.1c-0.4-0.3-0.9-0.4-1.3-0.7c-1.9-1.3-4-2.5-5.6-3.5c-2.1-1.3-4.5-2.4-6.8-3.6
							c-0.4-0.5-1.2-0.9-1.7-1.3c-1.3-0.9-2.9-1.9-3.8-3.4c-0.2-0.3-0.4-0.9-0.6-1.3c-0.2-0.4-0.5-0.8-0.6-1.3c0-0.4,0.3-1,0.1-1.3
							c0.5-0.8,0.9-2.2,1.8-2c0.6,0.1,0.9,0.9,1.2,1.3c2.3,2.9,6.3,5,9.4,6.7c1.1,0.6,2.4,1.1,3.2,2.1c1.2,0.4,2.2,1.1,3.2,1.8
							c3.2,2,6.6,3.8,9.8,5.7c1.8,1.1,3.5,2.2,5.4,3.5c3.3,2.2,6.5,4.3,9.6,6.7C516.5,754.6,516.9,755.2,517.4,755.2z"/>
						<path class="st1" d="M519,756.6c0,0,0-0.1,0-0.1c0.2-0.1,0,0.2,0,0.3c0,0.1,0.1,0.3-0.1,0.4c-0.3,0.1-0.6,0.1-0.9,0.1
							c-0.9,0-0.8-0.3-1.1-0.6c-0.3-0.3-1-0.7-1.1-1c-0.3-1.8-0.3-3.7-0.4-5.6c0-0.3,0-0.5,0.2-0.7c-0.4-1,0-2.2,0-3.3
							c0-0.3-0.1-0.6-0.1-0.9c0-0.3,0-0.6,0-0.9c0-1.6,0-3.6,0.1-5.4c0-0.3-0.1-0.7-0.1-1c0.2-1.6,0.1-3.2,0.1-4.5
							c0-1.7-0.2-3.4-0.3-5.2c0.2-0.4,0.2-1,0.2-1.4c0.1-1.1,0.1-2.3,1-3.4c0.2-0.2,0.6-0.5,0.8-0.8c0.3-0.3,0.4-0.6,0.8-0.8
							c0.3-0.1,1.1-0.2,1.1-0.4c0.9,0.1,2.3-0.2,2.6,0.4c0.2,0.4-0.3,0.8-0.5,1.2c-1.4,2.3-1.1,5.4-1.1,7.8c0,0.9,0.3,1.8-0.1,2.6
							c0.2,0.8,0.1,1.7,0.1,2.4c-0.1,2.5,0.1,5.1,0,7.7c0,1.4-0.1,2.8-0.3,4.3c-0.3,2.7-0.4,5.2-0.9,7.9
							C519,755.8,518.8,756.3,519,756.6z"/>
						<path d="M477.4,675.9c0,0-16.3-31.3-31.2-10.9c-14.9,20.4,39.4,54.2,39.4,54.2s61.7-73.9,29.7-70.1S477.4,675.9,477.4,675.9z"
							/>
					</g>
					<polygon id="Cross" points="641.9,730.4 624.7,714.7 638.8,698.4 627.7,686.6 612.4,703.3 597.5,689.6 583.9,701.6 
						600.6,716.1 587,731 598.9,744.6 613.7,727.4 630.1,741.5 					"/>
					<g id="Window">
						<path class="st1" d="M690.7,712.3c0.1,0,0.2,0,0.3,0c0.2,0.2-0.4,0-0.7,0c-0.4,0-0.8,0.1-1,0c-0.2-0.3-0.4-0.5-0.4-0.9
							c0-0.9,0.6-0.8,1.3-1.2c0.8-0.4,1.8-1.1,2.3-1.3c4.5-0.6,9.3-0.8,13.9-1.1c0.7,0,1.2,0,1.8,0.1c2.5-0.5,5.4-0.3,8.1-0.4
							c0.7,0,1.5-0.2,2.2-0.2c0.7,0,1.4-0.1,2.1-0.1c4-0.3,8.8-0.4,13.4-0.7c0.8,0,1.7-0.2,2.5-0.2c3.9,0,7.9-0.3,11.1-0.5
							c4.2-0.2,8.5-0.6,12.8-1c1,0.2,2.5,0,3.6,0c2.7,0,5.8-0.2,8.4,0.5c0.6,0.2,1.3,0.5,2,0.7c0.7,0.2,1.5,0.3,2,0.7
							c0.4,0.3,0.5,1,1,1.1c-0.1,0.9,0.6,2.3-0.8,2.7c-0.9,0.3-2-0.2-2.9-0.4c-5.9-1-13.4-0.3-19.4,0c-2.1,0.1-4.4,0.6-6.4,0.2
							c-2,0.3-4.1,0.3-6.1,0.4c-6.3,0.2-12.7,0.8-19,1c-3.5,0.1-7,0.2-10.8,0.3c-6.6,0.1-13,0.3-19.5,0.2
							C692.5,712.2,691.3,712,690.7,712.3z"/>
						<path class="st1" d="M687.8,809.7c0-0.1,0-0.2,0-0.4c0.2-0.2,0,0.5,0,0.8c0,0.4,0,0.9-0.1,1.2c-0.3,0.2-0.6,0.4-0.9,0.4
							c-0.9-0.1-0.8-0.7-1.1-1.6c-0.3-0.9-0.9-2.2-1.1-2.8c-0.2-5.2-0.1-10.8-0.1-16.3c0-0.8,0-1.4,0.3-2.1
							c-0.3-2.9,0.1-6.3,0.2-9.5c0-0.9,0-1.8,0-2.6c0-0.8,0-1.7,0-2.5c0-4.7,0.2-10.3,0.3-15.6c0-1-0.1-1.9,0-2.9
							c0.3-4.6,0.3-9.2,0.4-12.9c0.1-4.9,0-9.9-0.1-15c0.3-1.1,0.2-2.9,0.3-4.2c0.2-3.2,0.3-6.7,1.1-9.8c0.2-0.7,0.6-1.5,0.9-2.2
							c0.3-0.8,0.4-1.7,0.9-2.2c0.3-0.4,1.1-0.5,1.1-1.1c0.9,0.2,2.3-0.5,2.6,1.1c0.2,1.1-0.4,2.3-0.6,3.3
							c-1.5,6.8-1.3,15.6-1.4,22.5c0,2.5,0.2,5.2-0.3,7.4c0.2,2.4,0,4.8,0,7.1c-0.3,7.4-0.2,14.8-0.4,22.2
							c-0.1,4.1-0.3,8.1-0.5,12.5c-0.4,7.7-0.6,15.2-1.3,22.7C687.8,807.6,687.6,808.9,687.8,809.7z"/>
						<path class="st1" d="M776.3,731.1l-0.3,0c-0.2-0.2,0.4,0,0.7,0c0.4,0,0.8,0,1,0.1c0.2,0.3,0.3,0.6,0.3,0.9
							c-0.1,0.9-0.7,0.8-1.5,1c-0.8,0.3-1.9,0.8-2.5,1c-4.5,0-9.4-0.2-14.1-0.3c-0.7,0-1.2-0.1-1.8-0.3c-2.5,0.3-5.5-0.1-8.2-0.2
							c-0.8,0-1.5,0.1-2.3,0.1c-0.7,0-1.4,0-2.1,0c-4.1,0-8.9,0-13.5,0.1c-0.8,0-1.7,0.2-2.5,0.2c-4-0.1-8,0.2-11.2,0.4
							c-4.2,0.2-8.6,0.8-13,1.3c-1-0.1-2.5,0-3.6,0.1c-2.8,0.1-5.8,0.5-8.5-0.1c-0.6-0.1-1.3-0.4-2-0.6c-0.7-0.2-1.5-0.2-2.1-0.6
							c-0.4-0.2-0.6-1-1.1-1c0-0.9-0.8-2.3,0.6-2.7c0.9-0.3,2,0.1,3,0.2c6.1,0.6,13.7-0.4,19.8-0.8c2.2-0.2,4.5-0.6,6.5-0.3
							c2-0.3,4.2-0.4,6.2-0.4c6.5-0.2,13-0.6,19.4-0.5c3.6,0,7.1,0.2,11,0.4c6.7,0.4,13.3,0.8,19.8,1.7
							C774.4,731,775.6,731.3,776.3,731.1z"/>
						<circle cx="702.4" cy="721.4" r="5.6"/>
						<circle cx="716.7" cy="721.2" r="5.6"/>
						<circle cx="731.1" cy="720.6" r="5.6"/>
					</g>
				</g>
				<g id="Nose">
					<path class="st1" d="M577.3,830.5l0.4,0.1c0.2,0.2-0.5-0.1-0.8-0.1c-0.4-0.1-1-0.1-1.2-0.2c-0.2-0.3-0.3-0.6-0.2-0.9
						c0.2-0.9,0.9-0.7,1.8-0.9c1-0.2,2.3-0.6,3-0.7c5.3,0.5,11.1,1.1,16.6,1.4c0.8,0,1.4,0.1,2.1,0.3c3-0.2,6.4,0.2,9.5,0.1
						c0.9,0,1.7-0.2,2.6-0.3c0.8-0.1,1.6-0.1,2.4-0.2c0.6-0.1,1.2-0.2,1.7-0.2c0.6-0.1,1.2-0.2,1.8-0.3c1.2-0.2,2.4-0.6,3.5-0.9
						c2.3-0.7,4.4-1.9,5.5-3.4c0.1-0.1,0.2-0.3,0.3-0.4l0.2-0.5c0.2-0.3,0.3-0.6,0.4-0.9c0.6-1.4,0.6-3.1,0.1-5
						c-0.5-1.9-1.3-3.8-2.1-5.4c-2-4.4-4.8-8.9-7.3-13.7c-0.3-1.2-1.2-2.8-1.7-4.1c-1.3-3.1-2.7-6.6-3.1-9.9c-0.1-0.7,0-1.7,0-2.5
						c0-0.9-0.2-1.8,0-2.5c0.1-0.5,0.8-0.8,0.7-1.4c0.9-0.1,2-1.3,2.9,0.2c0.5,1,0.4,2.3,0.6,3.4c0.5,3.5,1.8,7.3,3.4,11
						c1.6,3.7,3.5,7.3,5.2,10.5c1.2,2.3,2.8,4.7,3.4,7c1.3,2.2,2.2,4.6,2.7,7.2c0.4,2,0.5,4.3-0.2,6.5c-0.7,2.2-2.1,4-3.8,5.4
						c-3.4,2.7-7.5,3.9-11.3,4.5c-4.4,0.7-8.6,0.7-13.3,0.6c-8.1-0.4-15.8-1.3-23.5-2.9C579.5,830.8,578.1,830.4,577.3,830.5z"/>
					<path class="st1" d="M595.8,821L595.8,821c0-0.3,0,0,0.1,0.1c0.1,0.1,0.3,0.1,0.2,0.3c-0.1,0.2-0.3,0.5-0.5,0.8
						c-0.6,0.7-0.7,0.5-1.1,0.6c-0.4,0.1-1.1,0.4-1.4,0.4c-1.4-0.7-2.8-1.8-4.1-2.7c-0.2-0.1-0.3-0.3-0.4-0.5
						c-0.9-0.2-1.5-1-2.3-1.5c-0.2-0.1-0.5-0.2-0.7-0.3c-0.2-0.1-0.4-0.2-0.6-0.4c-1.2-0.7-2.5-1.5-3.8-2.1
						c-0.2-0.1-0.5-0.1-0.8-0.2c-1.1-0.6-2.3-0.9-3.3-1.2c-1.3-0.3-2.6-0.3-3.9-0.2c-0.3-0.2-0.7-0.2-1.1-0.2
						c-0.8-0.1-1.7,0-2.7-0.6c-0.2-0.1-0.5-0.5-0.8-0.6c-0.3-0.2-0.6-0.3-0.9-0.6c-0.2-0.2-0.5-0.9-0.7-1c-0.3-0.9-1-2.1-0.5-2.6
						c0.3-0.3,0.9,0,1.3,0.2c1.3,0.3,2.7,0.4,4,0.4c1.3,0,2.6,0,3.8,0.1c0.8,0.1,1.8-0.1,2.4,0.6c0.8-0.1,1.6,0.3,2.2,0.5
						c2.2,0.8,4.5,1.7,6.5,2.9c1.1,0.7,2.1,1.5,3.2,2.4c1.8,1.6,3.6,3.1,5.1,4.9C595.3,820.6,595.5,821,595.8,821z"/>
				</g>
				<g id="Hair">
					<path class="st1" d="M170.4,531.7c0.6,0.5,1.2,0.9,1.8,1.4c1,1-2.4-1.9-4-3c-2.1-1.7-4.8-3.4-5.8-4.4c-0.9-1-1.6-1.8-1.3-2.1
						c0.4-0.3,1.4,0.2,3,1.2c1.5,0.9,3.6,2.3,5.9,3.9c5,3.2,11.3,7.6,14.4,10c6.3,5.3,12.6,11,18.6,17.1c1.5,1.5,2.9,3.1,4.4,4.7
						l2.2,2.4c0.7,0.8,1.4,1.6,2.1,2.4c1.4,1.6,2.8,3.3,4.2,4.9c1.4,1.7,2.7,3.4,4.1,5.1c5.3,6.9,10.4,14,14.8,21.5
						c2.3,3.7,4.3,7.6,6.4,11.4l0.8,1.4l0.7,1.5l1.4,2.9l1.4,2.9c0.5,1,0.9,1.9,1.3,2.9c1.9,4.5,3.5,8.3,4.8,12.6
						c3.4,8.6,6.3,18.4,8.1,28.6c1.8,10.2,2.3,20.7,2.6,30.5c0.2,5.5,0.4,11,0.5,16.5c0.1,5.2,0.2,10.4,0.4,15.5
						c1,29.4,2.8,64.4,8.9,96.7c0.6,3,1.1,5.9,1.8,8.9c0.7,2.9,1.4,5.9,2,8.8c3.2,13.8,7.4,27.5,12.4,40.2c0.6,1.6,1.3,3.2,1.9,4.7
						c0.6,1.6,1.4,3.1,2,4.6c0.7,1.5,1.4,3,2,4.5c0.7,1.5,1.3,2.9,2.1,4.3c1.5,2.8,2.9,5.6,4.3,8.2c1.5,2.6,3,5.1,4.4,7.5
						c3.9,6.4,8.2,12.6,13,18.6l1.7,2.3c0.6,0.7,1.3,1.4,1.9,2.2c1.3,1.4,2.5,2.9,3.8,4.3l1.9,2.2c0.6,0.7,1.3,1.4,2,2.1
						c1.4,1.4,2.7,2.8,4.1,4.1c11.1,10.7,23.8,20.1,37.3,28.3c3,2,6.8,4.3,10.8,6.5c4,2.2,8.1,4.3,11.7,6c2.2,1.1,4.5,2.2,6.8,3.2
						c2.3,1,4.6,2.1,7,3.1c2.4,1,4.7,2,7.1,3c1.2,0.5,2.4,1,3.6,1.4l3.6,1.3c9.7,3.6,19.4,6.5,28.5,9c4,1.1,8.8,2.5,13.6,3.5
						c4.8,1.1,10.5,2,13.9,2.8c2.4,0.6,2.9,1.4,6.7,1.8c-1.2,0.8,3.4,2.7-7.1,1.9c-6.9-0.6-14.4-2.3-20.9-3.7
						c-5.2-1.2-10.6-2.6-16.1-4.1c-5.5-1.6-11.1-3.3-16.7-5.3c-11.3-3.9-22.6-8.8-33.7-14.3c-11.1-5.5-21.8-11.7-31.7-18.5
						c-10-6.8-19-14.2-26.9-21.8c-5.7-5.4-11.2-11.5-16.3-17.7c-1.2-1.6-2.4-3.2-3.6-4.7c-0.6-0.8-1.2-1.6-1.8-2.3
						c-0.6-0.8-1.1-1.6-1.6-2.4c-1.1-1.6-2.1-3.2-3.1-4.7c-1-1.6-2-3.1-2.8-4.7c-8-12.5-14.5-26.5-19.5-40
						c-3.9-10.9-7.3-22-10.1-33.3c-2.7-11.3-5-22.7-6.7-34.2c-1.7-11.5-3.1-23-4-34.6c-0.5-5.8-0.8-11.6-1.3-17.3
						c-0.3-5.8-0.7-11.6-0.9-17.3c-0.6-12.8-0.8-25.6-1-38.6c-0.1-6.5-0.3-13-0.7-19.6c-0.5-6.6-1.1-13.3-2.4-20
						c-0.2-1.5-0.6-2.9-0.9-4.4c-0.3-1.5-0.6-2.9-1-4.4c-0.8-2.9-1.5-5.8-2.4-8.6l-1.3-4.3c-0.5-1.4-1-2.8-1.5-4.2l-1.5-4.2
						l-1.7-4.1c-4.4-11-9.8-21.5-16.1-31.5c-12.6-19.9-28.4-37.6-46.3-53.1c-0.6-0.6-2.5-2.3-4.7-4.2
						C175,535.2,172.5,533.1,170.4,531.7z"/>
					<path class="st1" d="M275.9,559.1l-0.3-0.4c0-0.3,0.4,0.5,0.6,0.8c0.3,0.5,0.7,1,0.8,1.3c-0.1,0.4-0.2,0.7-0.5,0.9
						c-0.8,0.4-1.2-0.3-2.1-1.1c-0.9-0.8-2.3-1.7-2.9-2.2c-4-5-8.7-10.2-13.7-14.5c-0.7-0.6-1.3-1.1-1.8-1.8c-3-2-6.2-4.7-9.5-6.7
						c-0.9-0.6-1.9-1-2.8-1.6c-0.4-0.3-0.9-0.5-1.3-0.8c-0.5-0.2-0.9-0.5-1.3-0.7c-0.6-0.3-1.3-0.7-2-1c-0.7-0.3-1.4-0.6-2.1-1
						c-1.4-0.7-2.9-1.2-4.4-1.9c-3-1.2-6.2-2.3-9.4-3.1c-1.1-0.3-2.4-0.4-3.5-0.8c-5.4-1.4-11.2-2-15.8-2.3
						c-6.1-0.5-12.3-0.3-18.6,0.3c-1.4-0.1-3.6,0.2-5.1,0.3c-3.9,0.4-8.3,1.2-12.1,1.2c-0.9,0-1.9-0.1-2.9-0.1c-1,0-2.2,0.2-3,0
						c-0.6-0.1-0.9-0.8-1.7-0.7c-0.1-0.9-1.4-2,0.6-2.9c1.3-0.6,3-0.5,4.4-0.6c4.4-0.4,9.4-1.1,14.5-1.7c5-0.5,10.1-0.9,14.6-0.9
						c3.2,0,6.7-0.2,9.6,0.5c3,0,6.2,0.4,9.1,0.8c9.4,1.4,18.8,3.8,27.4,8.1c1.2,0.6,2.4,1.2,3.5,1.8c1.2,0.6,2.3,1.3,3.4,2
						c1.2,0.7,2.3,1.5,3.4,2.2c1.1,0.8,2.3,1.6,3.4,2.5c7.9,6.1,14.6,13.1,19.9,21.2C274.3,556.8,275.1,558.3,275.9,559.1z"/>
					<path class="st1" d="M164.7,386.6l-0.2,0.8c-0.3,0.4,0.2-1.1,0.4-1.8c0.3-0.9,0.5-2.1,0.7-2.5c0.4-0.4,0.7-0.7,1.1-0.6
						c0.8,0.3,0.4,1.8,0.2,3.7c-0.1,1-0.1,2.3-0.1,3.4c0,1.1,0,2.1,0,2.8c-0.7,5.6-0.9,11.4-0.2,17.2c0.7,5.7,2.4,11.4,5.1,16.3
						c0.8,1.3,1.4,2.4,2.1,3.7c3.9,4.4,9.7,9.4,15.2,13.5c1.5,1.1,3.2,2.2,4.8,3.3c1.5,1,3.1,2.1,4.6,3.1
						c8.8,5.8,19.3,12.5,29.7,18.1c1.9,1,3.9,1.9,5.8,3c2.3,1.2,4.6,2.4,6.8,3.6c2.3,1.2,4.6,2.6,6.8,4.1c4.3,3.1,7.8,6.5,10.6,9.8
						c3.7,4.4,6.9,9.3,9.5,14.5c2.6,5.2,4.7,10.8,6.4,16.4c0.2,1.3,0.6,2.9,1,4.6c0.4,1.7,0.7,3.4,1,4.8c1.3,7.2,2.3,15.3,1.8,22.2
						c-0.1,1.5-0.3,3.4-0.5,5.2c-0.2,1.8-0.3,3.9-0.7,5.1c-0.3,0.9-1,1.1-1.1,2.5c-0.9-0.4-2.3,1.3-2.7-2.4
						c-0.3-2.4,0.2-5.1,0.3-7.4c0.3-7.5-0.3-16.2-2-24.8c-1.6-8.5-4.4-16.9-7.7-23.7c-2.4-4.9-5.8-9.7-8.7-13.8
						c-3.5-3.8-7.3-7.5-11.5-10.2c-3.3-2.2-7.1-4-10.8-5.9c-3.7-1.9-7.4-3.9-11.1-5.9c-7.3-4.1-14.4-8.4-21.4-13
						c-3.9-2.5-7.7-5.1-11.5-7.9c-3.8-2.8-7.6-5.7-11.3-9c-3.3-2.9-6.4-6.1-8.7-9.9c-2.2-3.8-3.8-7.9-4.8-12.1
						c-1.1-4.2-1.5-8.5-1.6-12.8c0-4.3,0.4-8.6,1.2-12.8C163.7,391.3,164.6,388.4,164.7,386.6z"/>
					<path class="st1" d="M333.9,517l-0.2-0.8c0-0.5,0.3,1.1,0.5,1.7c0.3,0.9,0.7,2,0.7,2.6c-0.1,0.5-0.3,1-0.6,1
						c-0.9,0.1-1.3-1.4-2.1-3.1c-0.9-1.9-2.4-4.3-3-5.5c-2.1-5.4-4.5-10.8-7.4-16.1c-2.9-5.3-6.3-10.3-10-14.8c-1-1.3-2-2.3-2.8-3.6
						c-2.3-2.2-4.7-4.6-7.4-6.9c-2.6-2.3-5.5-4.5-8.3-6.4c-1.6-1-3.3-2-4.9-2.9c-1.6-0.9-3.2-1.7-4.8-2.5c-9.3-4.5-21.3-8.3-32.6-12
						c-2.1-0.6-4.2-1.2-6.3-1.8c-4.9-1.5-9.8-2.8-14.6-3.8c-4.8-1-9.4-1.8-13.5-2.6c-2.7-0.6-5.6-1.2-8.4-2.1
						c-2.8-0.9-5.6-2.2-8.3-3.6c-2.7-1.4-5.2-3.1-7.6-4.9c-2.4-1.8-4.7-3.8-6.9-5.9c-0.9-1-2-2.3-3.1-3.7c-1.1-1.4-2.3-2.7-3.1-3.9
						c-2.3-3-4.3-6.4-6.2-9.8c-0.9-1.7-1.8-3.4-2.4-5.2c-0.4-0.9-0.7-1.7-1-2.6c-0.3-0.9-0.6-1.7-0.8-2.6c-0.2-0.7-0.4-1.6-0.6-2.4
						c-0.2-0.9-0.4-1.8-0.6-2.7c-0.5-1.8-1-3.8-1-5.1c0-0.9,0.6-1.4,0.3-2.7c1,0.1,1.8-1.9,3.3,1.5c0.9,2.2,1.4,4.9,2.1,7.1
						c0.6,1.8,1.2,3.6,1.9,5.5c0.8,1.8,1.6,3.8,2.5,5.6c1.9,3.7,4.1,7.5,6.7,10.9c2.6,3.5,5.5,6.7,8.7,9.4c3.1,2.8,6.5,5.1,9.8,7
						c2.4,1.3,4.9,2.5,7.6,3.3c2.6,0.9,5.3,1.5,7.7,2.2c5.2,0.8,10.6,1.8,15.7,3c8.2,1.9,16.3,4.3,24.2,6.8c8,2.5,16,5.1,23.7,8.4
						c8.6,3.7,16.8,8.5,24.3,15.2c6.6,5.9,12.1,12.7,16.7,20c2.3,3.6,4.2,7.5,6.1,11.4c0.8,2,1.7,3.9,2.5,5.9c0.7,2,1.5,4,2.1,6.1
						C332.4,512.4,333.3,515.3,333.9,517z"/>
					<path class="st1" d="M594.5,248.7l-1.5,0.1c-0.9-0.1,2-0.1,3.3-0.2c1.8-0.1,3.9-0.2,4.8-0.1c0.9,0.3,1.6,0.5,1.5,0.9
						c-0.2,0.9-3,0.8-6.5,1.3c-3.8,0.5-8.7,1.5-11.2,1.9c-21.2,2.2-43.8,6.9-64.7,14.1c-1.5,0.5-2.8,1-4.2,1.4
						c-1.3,0.5-2.6,0.9-4,1.3c-5.5,2.2-11.5,4.7-17.5,7.4c-6,2.7-12,5.6-17.6,8.6c-1.5,0.9-3.1,1.7-4.7,2.6
						c-1.5,0.9-3.1,1.8-4.6,2.8c-3,1.7-5.8,3.6-8.6,5.4c-8,5.3-16.5,11.5-24.8,18.4c-8.3,6.9-16.3,14.6-23.7,22.5
						c-1.3,1.5-2.7,2.9-4,4.4c-1.3,1.5-2.5,3-3.8,4.5l-2.3,2.6c-0.8,0.9-1.5,1.8-2.2,2.7c-1.5,1.8-2.9,3.6-4.4,5.5
						c-2.8,3.7-5.6,7.4-8,11.1c-2.6,3.7-4.9,7.4-7.1,10.9c-1.1,1.8-2.1,3.6-3.1,5.3c-0.5,0.9-1,1.7-1.5,2.5
						c-0.5,0.8-0.9,1.7-1.4,2.5c-9.6,17.3-17.4,36.6-22.9,56.6c-1.5,4.4-3.3,11.3-4.4,16.4c-3,12.7-5.1,27.1-6.8,39.3
						c-0.4,2.7-1,6-1.4,9.2c-0.4,3.2-0.6,7-1,9.3c-0.3,1.6-1.1,2-1.1,4.5c-0.9-0.7-2.3,2.4-2.7-4.5c-0.2-4.6,0.5-9.6,1-14
						c1.5-14.1,3.9-30.1,7.6-46c1.8-7.9,4-15.8,6.3-23.3c2.4-7.5,5-14.8,7.7-21.4c3.9-9.5,8.5-19.8,13.4-27.8
						c4.5-8.7,9.9-17.2,15.4-25c8.8-12.5,18.8-24.3,29.5-35.2c10.8-10.9,22.5-20.9,35.1-29.7c1.8-1.2,3.5-2.4,5.3-3.6
						c1.7-1.2,3.6-2.3,5.4-3.4c3.6-2.3,7.3-4.4,11-6.6c7.5-4.2,15.3-8.1,23.7-11.8c14.7-6.4,29.6-11.5,44.7-15.3
						c15.1-3.8,30.5-6.4,46.2-7.5C585.7,249.3,591.2,249.1,594.5,248.7z"/>
					<path class="st1" d="M419.1,466l-0.3-1c0-0.7,0.3,1.4,0.6,2.3c0.3,1.2,0.8,2.6,0.9,3.3c-0.1,0.7-0.2,1.2-0.6,1.3
						c-0.9,0.1-1.4-1.8-2.4-4.3c-1.1-2.6-2.4-6.1-2.9-7.9c-1.5-7.7-2-16-1.2-24.3c0.7-8.3,2.7-16.5,5.6-24.2
						c0.8-2.2,1.6-3.9,2.7-5.8c1.7-4.1,4-8.3,6.5-12.4c2.6-4,5.3-8.1,8-11.8c0.7-1.1,1.5-2.1,2.2-3.2c0.8-1,1.6-2.1,2.3-3.1
						c0.8-1,1.5-2,2.2-2.9c0.8-1,1.5-1.9,2.3-2.8c1.1-1.3,2.2-2.7,3.4-4.1c1.2-1.4,2.4-2.8,3.6-4.2c0.6-0.7,1.2-1.4,1.9-2.1
						c0.6-0.7,1.3-1.4,2-2.1c1.3-1.4,2.6-2.8,4-4.3c5.4-5.6,11.2-11.2,16.9-16.5c2.1-1.9,4.2-3.9,6.3-5.8
						c10.2-8.8,20.8-17.4,29.3-24c11.2-8.7,22.9-17.9,34.9-26.8c2.8-1.8,6.9-4.9,10-7c7.7-5.4,16.1-11.4,23.9-15.8
						c1.7-1,3.9-2,5.9-3.1c2-1.1,4.4-2.5,5.9-3.1c1.1-0.4,1.8,0.1,3.3-0.9c0.1,1,2.7,1-1.1,4c-2.5,2-5.7,3.5-8.4,5.1
						c-17,10.1-37.7,25.5-53.8,37.7c-5.8,4.4-11.9,9.4-17.3,13.1c-5.3,4.4-10.8,8.8-16,13c-16.6,13.6-32.5,28.4-46.5,44.6
						c-2,2.2-3.8,4.6-5.7,6.8c-1.9,2.3-3.7,4.7-5.5,7.1c-1.7,2.4-3.6,4.9-5.3,7.4c-1.7,2.6-3.5,5.1-5.2,7.9
						c-2.9,4.8-5.6,9.6-7.7,14.7c-2.2,5-3.9,10.3-5,15.6c-2.4,10.7-2.6,21.7-1,32.6C417.8,459.9,418.3,463.8,419.1,466z"/>
					<path class="st1" d="M782.5,270.9l-0.9,1.3c-0.7,0.7,1.2-1.7,1.9-2.8c1-1.5,2-3.4,2.6-4.2c0.7-0.6,1.3-1.1,1.6-0.9
						c0.7,0.6-0.9,3.1-2.6,6.4c-1,1.7-2.1,3.8-3.2,5.7c-1.1,1.8-2.2,3.5-3,4.6c-7.1,8.8-15.8,16.9-25.4,23.8c-2.4,1.8-4.9,3.3-7.3,5
						c-2.5,1.5-5,3.1-7.6,4.5c-5.1,2.9-10.4,5.5-15.7,7.9c-1.5,0.7-2.9,1.3-4.3,1.8c-1.4,0.5-2.8,1-4.2,1.5
						c-5.8,2.5-12.2,4.7-18.8,6.7c-6.6,2-13.4,3.7-19.9,5.2c-3.6,0.9-7.3,1.8-10.9,2.6c-3.5,0.7-6.9,1.5-10.3,2.2
						c-9.8,2-20.5,4.1-31.5,6.2c-11,2.2-22.2,4.5-33,7.2c-4,0.9-7.9,2.1-11.9,3.1c-9.3,2.4-18.6,5.2-27.3,8.1
						c-8.7,3-16.9,6.2-23.9,9.2c-18.7,8-37.2,18.6-53.8,31.8c-1.9,1.4-4.3,3.3-6.7,5.2c-1.2,1-2.3,2-3.4,3c-0.6,0.5-1.1,1-1.6,1.4
						c-0.5,0.5-1,1-1.5,1.4c-1.2,1.1-2.4,2.3-3.7,3.5c-1.2,1.2-2.4,2.4-3.6,3.7l-1.8,1.9l-1.8,1.9c-1.2,1.3-2.4,2.5-3.5,3.9
						c-2.2,2.6-4.5,5.2-6.6,7.9c-1,1.3-2.1,2.6-3.1,3.9c-1,1.3-2,2.6-2.9,3.8c-0.9,1.1-1.8,2.3-2.7,3.6c-1,1.3-2,2.6-2.9,4
						c-1.8,2.8-3.9,6.1-5.2,8c-1,1.4-1.9,1.4-3,3.7c-0.5-1-3.2,1.3-0.4-5.3c0.5-1.1,1-2.2,1.6-3.3c0.6-1.1,1.2-2.1,1.9-3.2
						c0.7-1,1.3-2.1,2-3.1c0.7-1,1.4-2,2-2.9c2-3.1,4.3-6.1,6.6-9.2c1.2-1.5,2.4-3.1,3.7-4.6l0.9-1.2l1-1.1c0.6-0.8,1.3-1.5,2-2.3
						c5.3-6.1,11-12.2,17.2-17.8c6.2-5.6,12.7-10.9,19.2-15.7c6.5-4.8,13.2-9,19.6-12.8c9.1-5.3,19.4-10.7,28.3-14.1
						c9.1-4.2,18.8-7.7,28-10.7c7.4-2.5,14.9-4.7,22.5-6.7c7.6-2.1,15.2-4,22.8-5.7c15.3-3.6,30.7-6.5,46-9.4
						c17-3.3,33.7-6.7,51.5-12c15.5-4.7,30.4-10.7,44.1-18.6c13.7-7.9,26.4-17.8,36.7-30C777.2,278.1,780.9,273.8,782.5,270.9z"/>
					<path class="st1" d="M512.6,471l0.7-1.1c0.6-0.6-0.9,1.4-1.4,2.4c-0.8,1.3-1.6,2.9-2.1,3.5c-0.6,0.5-1.1,0.9-1.4,0.7
						c-0.7-0.5,0.5-2.6,1.8-5.4c1.4-3,3.1-7,4.1-8.9c9.7-15.6,22.8-30.9,37.4-43.2c2-1.8,3.9-3.1,6-4.5c1-0.8,2-1.7,3-2.5
						c1-0.8,2.2-1.6,3.3-2.4c1.1-0.8,2.3-1.6,3.4-2.4c0.6-0.4,1.2-0.8,1.7-1.2c0.6-0.4,1.2-0.7,1.8-1.1c2.5-1.5,4.9-3,7.4-4.4
						c2.5-1.3,5-2.7,7.5-4c2.8-1.3,5.5-2.8,8.3-4c2.7-1.1,5.4-2.3,8.1-3.4c7.7-3.1,16.3-5.9,25.1-8.6c8.8-2.7,17.8-5.4,26.5-8.3
						c1.6-0.5,3.2-1.1,4.7-1.7c1.6-0.6,3.1-1.2,4.7-1.7c3.7-1.2,7.3-2.8,11-4.2c1.8-0.7,3.6-1.5,5.3-2.3c1.8-0.8,3.5-1.5,5.2-2.4
						c3.4-1.7,6.7-3.2,9.8-4.9c1.6-0.8,3.1-1.6,4.6-2.4c1.5-0.8,2.9-1.6,4.3-2.4c3.7-2,7.2-4.2,10.9-6.4c1.8-1.1,3.6-2.3,5.3-3.5
						l2.7-1.8l2.6-1.9c7-4.9,13.7-10.5,20.1-16.3c1.5-1.3,3.4-2.9,5.2-4.6c1.8-1.8,3.5-3.6,5-5.2c1.9-2,3.7-4.1,5.5-6.2
						c0.5-0.5,0.9-1.1,1.4-1.6l1.3-1.7c0.9-1.1,1.8-2.2,2.6-3.3c0.9-1.1,1.7-2.3,2.5-3.4c0.8-1.1,1.6-2.3,2.4-3.4
						c0.9-1.1,1.5-2.3,2.3-3.4c0.7-1.1,1.5-2.2,2.2-3.3c0.3-0.5,0.7-1,1-1.5c0.3-0.5,0.7-1.1,1-1.6c0.7-1.1,1.4-2.3,2.1-3.4
						c1.5-2.3,2.7-5.2,3.8-6.8c0.8-1.1,1.6-1.2,2.5-3.1c0.6,0.9,2.9-1.1,1.1,4.5c-0.3,0.9-0.7,1.9-1.1,2.8c-0.4,0.9-0.8,1.9-1.3,2.8
						c-1,1.8-2,3.5-2.9,5.1c-6,10.4-14.1,21.7-23.6,31.6c-9.5,10-20.1,18.8-30,25.8c-0.9,0.6-1.8,1.3-2.7,1.9
						c-0.9,0.6-1.8,1.2-2.8,1.9c-1.9,1.2-3.7,2.5-5.6,3.7c-3.8,2.3-7.5,4.6-11,6.2c-7,4.3-14.7,8-21.9,11.3
						c-11.7,5.4-23.9,9.7-36.1,13.6c-12.2,3.9-24.6,7.5-36.6,11.7c-13.3,4.8-26,10.4-38.9,18.5c-22.4,14.3-40.7,33.1-55.4,54.8
						C516.5,464.7,513.8,468.5,512.6,471z"/>
					<path class="st1" d="M996.8,345.5l-1.6,0.9c-1.1,0.4,2.2-1.2,3.6-2c1.9-1,4.2-2.4,5.2-2.8c1.1-0.3,2-0.5,2.1-0.1
						c0.2,0.9-2.8,2.5-6.6,4.9c-2,1.3-4.3,2.9-6.5,4.2c-2.2,1.4-4.1,2.6-5.5,3.4c-5.8,3.2-12,6.1-18.2,9.1
						c-6.3,2.8-12.6,5.8-19.1,8.4c-6.4,2.8-13,5.2-19.6,7.7c-3.3,1.2-6.6,2.3-9.9,3.5c-1.6,0.6-3.3,1.2-4.9,1.7
						c-1.7,0.5-3.3,1.1-5,1.6c-1.9,0.6-3.6,1.1-5.3,1.6c-0.8,0.2-1.7,0.5-2.5,0.7c-0.9,0.2-1.7,0.4-2.6,0.6
						c-14.2,4.7-31.3,8.5-47,11.6c-2.2,0.4-4.4,0.9-6.6,1.3c-2.2,0.4-4.4,0.8-6.6,1.2c-2.1,0.4-4.2,0.7-6.3,1.1
						c-2.1,0.3-4.2,0.6-6.2,0.9c-11.9,1.8-25,3.1-38.6,4c-13.5,0.9-27.4,1.2-40.9,1.4c-4.9,0.1-9.9,0.2-14.8,0.2
						c-11.6,0-23.3,0-34.5,0.2c-11.1,0.2-21.7,0.7-30.9,1.2c-12.2,0.8-24.7,2.1-37.1,4.2c-12.4,2.1-24.9,5.1-37,9
						c-2.8,0.8-6.3,1.8-9.7,3.1c-1.7,0.6-3.5,1.3-5.2,1.9c-1.7,0.7-3.3,1.4-4.7,2c-3.7,1.5-7.4,3.3-11.2,5.1
						c-1.9,0.9-3.7,1.9-5.5,2.9c-1.8,1-3.7,1.9-5.5,3c-1.8,1.1-3.6,2.1-5.4,3.2c-1.7,1.1-3.4,2.2-5.1,3.3c-0.8,0.5-1.7,1.1-2.5,1.6
						c-0.8,0.5-1.6,1.2-2.4,1.7c-1.6,1.1-3.2,2.3-4.7,3.4c-1.4,1-2.8,2.1-4.4,3.3c-0.8,0.6-1.6,1.2-2.3,1.8l-1.2,0.9
						c-0.4,0.3-0.7,0.7-1.1,1c-1.5,1.3-3.1,2.8-4.6,4.1c-0.4,0.3-0.7,0.7-1.1,1c-0.4,0.3-0.7,0.7-1,1c-0.6,0.6-1.2,1.2-1.8,1.6
						c-1.5,1.3-2.4,1.2-4.5,3.5c-0.1-1.3-3.8,0.8,1.6-6c0.9-1.1,1.8-2.3,2.9-3.3c1.1-1,2.1-2.1,3.2-3.1c1.1-1,2.2-2,3.2-3
						c1.1-0.9,2.2-1.8,3.3-2.7c0.8-0.7,1.7-1.4,2.6-2.1c0.4-0.4,0.9-0.7,1.3-1.1c0.4-0.3,0.9-0.7,1.4-1c1.8-1.3,3.7-2.7,5.5-4.1
						c1.9-1.4,3.9-2.6,5.9-3.9c1-0.7,2-1.3,3-2c1-0.6,2.1-1.2,3.1-1.8c1-0.6,2.1-1.2,3.1-1.9l1.6-0.9l1.6-0.9
						c2.2-1.2,4.4-2.3,6.6-3.5c2.3-1.1,4.5-2.1,6.8-3.2l1.7-0.8l1.7-0.7l3.5-1.5c18.5-7.7,38.2-12.8,55.6-15.7
						c12.5-2.1,26.3-3.8,37.7-4.1c12-1,24.3-1.3,36-1.5c18.7-0.3,37.5-0.2,56.3-0.6c9.4-0.2,18.8-0.5,28.1-1.2
						c9.3-0.6,18.7-1.4,27.9-2.5c20.6-2.4,40.8-5.9,62.5-11.2c38-9.3,73.6-22.6,108.1-39.7C987.2,350.6,993.4,347.8,996.8,345.5z"/>
					<path class="st1" d="M625,462.1l1.3-0.7c0.9-0.2-1.7,0.9-2.8,1.5c-1.5,0.8-3.3,1.8-4.1,2.1c-0.9,0.2-1.6,0.2-1.7-0.1
						c-0.3-0.8,2.2-2.1,5.1-4c1.6-1,3.4-2.3,5.1-3.4c1.7-1.1,3.3-2,4.4-2.6c2.4-1.1,4.8-2.3,7.2-3.5c2.5-1.1,5-2.1,7.5-3.2
						c5-2.2,10.2-3.9,15.4-5.8c1.3-0.5,2.6-0.9,3.9-1.3l4-1.2l4-1.2l2-0.6l2-0.5c5.3-1.4,10.6-3,16-4.2c3-0.7,5.5-1.3,8.4-1.7
						c11.4-2.9,25.1-4.9,37.5-6.8c3.5-0.5,7-1.1,10.4-1.6c3.3-0.5,6.6-0.9,9.9-1.3c18.7-2.5,41-4.9,61.9-7.7
						c3.8-0.5,7.7-1.2,11.5-1.7c18-2.5,36.3-6.1,50.4-9.6c9.4-2.3,18.8-5,28.2-8.2c9.4-3.2,18.8-6.9,27.9-11.1
						c2.1-0.8,4.7-2,7.3-3.3c2.6-1.3,5.3-2.6,7.4-3.8c5.6-2.9,11.3-6.3,16.8-9.9c2.8-1.7,5.5-3.6,8.1-5.4c2.6-1.9,5.2-3.6,7.6-5.4
						c2.2-1.5,4.8-3.3,7.3-5.2c1.3-1,2.5-2.1,3.8-3.1c0.6-0.5,1.2-1,1.8-1.4c0.5-0.4,1-0.8,1.5-1.2c1.3-0.9,2.1-0.7,3.9-2.4
						c0.2,1.1,3.3-0.1-1.2,5c-3,3.3-6.9,6.3-10.3,9c-10.8,8.5-23.9,17.4-37.9,24.7c-14,7.4-28.7,13.4-41.9,17.8
						c-9.5,3.2-19.9,6.4-28.7,8.1c-9.1,2.5-18.7,4.4-27.7,6.1c-29.1,5.4-58.7,8.6-87.9,12.2c-16.3,2-32.2,4.1-49.6,7.1
						c-15.2,2.6-30,5.8-44.5,9.9c-14.5,4.1-28.6,9.2-42.4,15.4c-0.5,0.2-2,0.8-3.7,1.5C628.3,460.3,626.4,461.3,625,462.1z"/>
					<path class="st1" d="M1104.7,345.4l-0.6,1.9c-0.5,1.1,0.8-2.6,1.2-4.2c0.7-2.3,1.3-5,1.7-6.2c0.5-1.1,1-1.9,1.4-1.7
						c0.8,0.4-0.2,4.1-1.2,8.9c-1.1,5.1-2.6,11.8-3.6,15c-4.7,13.8-10.9,27.7-18.5,41c-7.7,13.2-16.9,25.8-27.3,36.9
						c-3,3.1-5.5,5.7-8.6,8.2c-5.8,5.7-12.7,11.4-20.2,16.6c-0.9,0.6-1.9,1.3-2.8,1.9l-2.9,1.8c-1,0.6-1.9,1.2-2.9,1.8l-3,1.7
						c-3.9,2.3-7.9,4.3-11.8,6.3c-2.2,1-4.4,2.1-6.7,3.1c-2.2,1-4.5,1.9-6.8,2.8c-4.4,1.7-8.8,3.2-13.1,4.5
						c-12.6,4-26.9,6.7-41.6,8.1c-1.8,0.2-3.7,0.3-5.5,0.5c-1.8,0.1-3.7,0.3-5.6,0.4c-1.9,0.1-3.7,0.2-5.6,0.3
						c-1.9,0.1-3.7,0.2-5.6,0.2c-3.7,0.1-7.5,0.2-11.2,0.2c-1.9,0.1-3.7-0.1-5.6-0.1c-1.9-0.1-3.7-0.1-5.6-0.2l-4.1-0.1
						c-1.4-0.1-2.7-0.2-4.1-0.3c-2.7-0.2-5.4-0.5-8.1-0.8c-12.6-1.7-25.3-4.5-37.1-7.8c-11.8-3.4-22.7-7-32.3-10.2
						c-12.7-4.2-25.7-8.1-39.1-11c-3.4-0.7-6.7-1.5-10.1-2.1c-3.4-0.6-6.8-1.1-10.2-1.7c-0.9-0.1-1.7-0.3-2.6-0.4l-2.6-0.3l-5.2-0.6
						c-3.4-0.4-6.9-0.9-10.4-1c-3.1-0.3-7.1-0.6-11.1-0.9c-2-0.2-4-0.2-6-0.2c-2-0.1-3.8-0.1-5.6-0.1c-8.7-0.2-18,0.1-27.1,0.6
						c-9.1,0.5-18,1.3-26.3,2.2c-3.7,0.3-8.1,0.7-12.4,1.2c-4.3,0.6-9.3,1.4-12.3,1.7c-2.2,0.2-2.9-0.4-6.1,0.3
						c0.7-1.1-3.7-1.6,5.3-4c5.9-1.5,12.6-2.3,18.4-3.1c9.3-1.2,19.4-2.3,29.9-3c10.5-0.7,21.3-1,32.2-0.8c2.7,0,5.4,0.2,8.1,0.2
						c2.7,0.1,5.4,0.4,8.1,0.5c2.7,0.2,5.4,0.4,8.1,0.6c2.7,0.2,5.3,0.6,7.9,0.9c2.6,0.3,5.2,0.6,7.8,0.9c2.6,0.4,5.1,0.9,7.6,1.3
						c2.5,0.4,5,0.8,7.4,1.3c2.4,0.5,4.8,1.1,7.2,1.6c13.4,3,27.9,7,39.6,11.3c12.4,3.8,25.1,8.2,37.2,11.4c2.4,0.6,4.9,1.3,7.3,1.9
						l7.4,1.6l3.7,0.8l3.7,0.6l7.5,1.2c2.5,0.4,5,0.5,7.5,0.8l3.8,0.4c1.3,0.1,2.5,0.3,3.8,0.3l7.6,0.3c2.5,0.1,5.1,0.3,7.6,0.1
						l7.6-0.2c2.5-0.1,5.1-0.1,7.6-0.3c5.1-0.3,10.1-0.6,15.2-1.1c10.1-0.9,20.1-2.5,29.9-4.8c21.8-5,42.5-13.7,62.4-27.5
						c2.2-1.5,4.3-3.1,6.4-4.7c2.1-1.6,4.1-3.3,6.1-4.9c4-3.4,7.9-6.9,11.5-10.6c3.7-3.7,7.2-7.6,10.5-11.5c3.3-4,6.5-8.1,9.5-12.3
						c12-16.9,21.5-35.5,28.7-55C1101.2,356.6,1103.7,349.7,1104.7,345.4z"/>
					<path class="st1" d="M794.5,570.1l1.5,0c0.9,0.2-2.1,0.1-3.4,0.1c-1.8,0-4,0.2-4.9,0.1c-0.9-0.2-1.6-0.5-1.6-0.9
						c0.2-0.9,3-0.9,6.7-1.3c3.9-0.4,9-1.3,11.5-1.6c21.8-1.3,45.2-4,67.5-7.9c3.1-0.6,5.8-1,8.7-1.4c11.9-2.7,26-5.5,38.6-9
						c3.5-1,7.1-2,10.5-3.1c3.3-1,6.7-2,10-3c9.5-2.9,19.8-6.1,30.2-9.7c10.5-3.6,21-7.7,31-12.4c3.7-1.6,7.2-3.7,10.8-5.5
						c8.3-4.5,16.4-9.6,23.6-15.1c1.8-1.4,3.5-2.8,5.2-4.2c0.4-0.3,0.9-0.7,1.3-1c0.4-0.4,0.8-0.7,1.2-1.1c0.8-0.7,1.6-1.5,2.4-2.2
						c3.2-2.8,5.9-5.8,8.5-8.5c0.9-0.9,1.7-1.8,2.5-2.8c0.8-1,1.6-1.9,2.5-2.9c0.8-1,1.6-1.9,2.5-2.9c0.8-1,1.6-2,2.3-3
						c3.1-4.1,6-8.4,8.7-12.8c5.5-8.8,10.3-18.2,14.3-28c2-4.3,4.6-11.1,6.1-16.1c2-6.3,3.8-13.1,5.3-19.8
						c1.5-6.7,2.7-13.5,3.7-19.7c0.4-2.8,1.1-6.1,1.5-9.3c0.4-3.3,0.6-7.1,1-9.4c0.3-1.6,1-2.1,1.1-4.6c0.9,0.7,2.3-2.5,2.7,4.6
						c0.2,4.7-0.5,9.8-1,14.3c-1.6,14.4-4.8,30.7-10,46.5l-1,3l-1.1,2.9l-1.1,2.9l-1.1,2.9c-1.5,3.9-3.1,7.6-4.9,11.3
						c-3.5,7.3-7.2,14.2-11.1,20.4c-2.8,4.5-5.8,9.1-9.1,13.4c-0.8,1.1-1.6,2.1-2.5,3.2c-0.8,1-1.7,2-2.6,3
						c-1.7,1.9-3.3,3.9-5.1,5.5c-6.6,7.6-14.5,14.3-22.3,20.1l-4.8,3.4c-1.6,1.1-3.3,2.1-4.9,3.2c-3.3,2.2-6.7,4.1-10.1,6l-1.3,0.7
						l-1.3,0.7l-2.6,1.4c-1.7,0.9-3.5,1.8-5.2,2.7c-3.6,1.6-7.1,3.4-10.7,4.9c-14.4,6.2-29.2,11.2-44,15.8c-8.3,2.5-16.4,5-24.9,7.4
						c-8.4,2.3-17.1,4.5-26.1,6.5c-15.9,3.5-31.7,6.2-47.4,8.3c-15.8,2-31.6,3.3-47.5,3.9C803.4,569.8,797.8,569.9,794.5,570.1z"/>
					<path class="st1" d="M1131.9,532.8l-0.8,1c-0.7,0.5,1.1-1.3,1.8-2.1c1-1.1,2.1-2.5,2.7-3c0.7-0.4,1.3-0.7,1.5-0.4
						c0.6,0.7-1.1,2.5-2.8,5c-1.9,2.7-4.3,6.4-5.6,8.1c-12.1,13.9-26.5,27.7-41.8,39.3c-2.2,1.6-4,2.9-6.2,4.2c-1,0.8-2,1.6-3.2,2.4
						c-1.1,0.7-2.3,1.5-3.4,2.3c-2.3,1.5-4.7,3-7.2,4.6c-2.5,1.4-5.1,2.8-7.6,4.1c-1.3,0.7-2.5,1.4-3.8,2c-1.3,0.6-2.6,1.2-3.8,1.8
						c-2.8,1.3-5.6,2.8-8.5,3.9c-1.4,0.6-2.8,1.1-4.1,1.7c-1.4,0.6-2.7,1.1-4.1,1.6c-2,0.7-4,1.4-6.1,2.1c-1,0.4-2.1,0.7-3.2,1
						c-1.1,0.3-2.2,0.6-3.3,0.9c-1.1,0.3-2.2,0.6-3.3,0.9c-1.1,0.2-2.3,0.5-3.4,0.7c-1.1,0.2-2.3,0.5-3.4,0.7
						c-1.2,0.2-2.3,0.4-3.5,0.6c-1.2,0.2-2.4,0.4-3.5,0.5c-1.2,0.1-2.4,0.3-3.6,0.4c-2.4,0.3-4.8,0.4-7.2,0.5
						c-4.8,0.2-9.6,0-14.4-0.3c-1.7-0.1-3.5-0.3-5.2-0.4c-1.7-0.2-3.4-0.4-5.2-0.6c-16.1-2.3-32.1-6.2-44.5-9.4
						c-16.5-4.3-33.6-8.8-50.9-13.5c-3.8-1.3-9.7-3-13.9-4.3c-10.7-3.3-22.6-7.1-32.4-11.3c-2.2-0.9-4.7-2.2-7.2-3.3
						c-2.5-1.1-5.5-2.4-7.2-3.4c-1.2-0.7-1.3-1.6-3.2-2.3c0.9-0.7-1.1-2.9,4.5-1.2c3.7,1.1,7.5,2.9,10.9,4.3
						c11,4.4,23.9,8.8,37,12.8c13.1,4,26.4,7.5,38.1,10.7c8.4,2.3,17.6,4.4,25.1,6.8c8,1.8,16.2,3.9,24,5.6
						c12.5,2.7,25.3,4.8,38.1,4.9c12.8,0.2,25.5-2,37.7-5.6c13.6-4.1,26.4-9.9,39.7-17.6c2.8-1.8,5.7-3.6,8.5-5.3
						c1.4-0.8,2.8-1.8,4.1-2.8c1.4-1,2.7-1.9,4-2.9c1.3-1,2.7-1.9,4-2.9c0.7-0.5,1.3-1,2-1.5l1.9-1.6c2.6-2.1,5.1-4.1,7.7-6.2
						c1.3-1,2.5-2.2,3.7-3.2l3.7-3.3l3.7-3.3c1.2-1.1,2.5-2.2,3.6-3.4c2.3-2.3,4.7-4.7,7-7l3.5-3.5c1.2-1.2,2.2-2.4,3.4-3.6
						C1127,538.4,1130.3,535,1131.9,532.8z"/>
					<path class="st1" d="M855.4,649.9c0.4-0.1,0.7-0.2,1.1-0.2c0.4,0,0,0.1-0.6,0.2c-0.6,0.1-1.4,0.3-1.8,0.3
						c-1.3,0.3-2.8,0.7-3.5,0.7c-0.7-0.1-1.3-0.3-1.3-0.6c-0.1-0.9,2-1.3,4.6-2.2c0.7-0.2,1.5-0.6,2.2-0.8c0.8-0.2,1.6-0.5,2.3-0.7
						c1.5-0.5,2.9-0.9,3.9-1.1c8.2-1.2,16.8-1.6,25.4-1.4c8.6,0.2,17.2,0.9,25.6,1.6c2.4,0.2,4.3,0.4,6.5,0.8
						c9,0.4,19.5,1.6,29.1,1.7c2.7,0.1,5.4-0.1,8-0.2l1.9-0.1c0.6,0,1.3-0.1,1.9-0.1c1.3-0.1,2.5-0.2,3.7-0.3
						c7.1-0.7,14.9-1.9,22.7-3.8c7.8-1.9,15.7-4.4,23.2-7.4c1.4-0.6,2.7-1.1,4.1-1.7c1.3-0.6,2.7-1.3,4-1.8
						c6.4-2.8,12.6-6.1,18.4-9.5c5.8-3.4,11.1-7,15.7-10.2c12.2-8.6,23.9-18.8,35-29.9c1.3-1.2,2.9-2.7,4.5-4.3
						c1.6-1.6,3.2-3.3,4.5-4.7c6.9-7.1,14-15.3,20.5-22.1c1.4-1.5,3.3-3.2,5-5c1.7-1.8,3.6-3.9,4.9-5.1c1-0.8,1.8-0.6,2.9-2
						c0.4,1,2.9,0,0.1,4.3c-1.9,2.9-4.6,5.5-6.8,8c-7.1,7.9-15.1,17-23.6,25.8c-4.2,4.4-8.6,8.7-12.9,12.8c-4.3,4.1-8.6,8-12.7,11.5
						c-5.9,5-12.4,10.5-18.4,14.2c-5.9,4.4-12.3,8.4-18.5,12c-19.9,11.4-42.1,19.9-65,23c-6.4,0.8-12.7,1.3-19.2,1.3
						c-6.5,0-13.1-0.2-19.9-0.8c-12-0.9-23.6-2.3-35.3-3.2c-11.6-0.9-23.3-1.1-35,0.1C861.9,648.8,857.8,649.2,855.4,649.9z"/>
					<path class="st1" d="M1118.1,629c-0.1,0.3-0.3,0.7-0.5,1c-0.5,0.5,0.6-1.4,1-2.2c0.5-1.2,1-2.7,1.4-3.2
						c0.5-0.5,0.9-0.9,1.3-0.7c0.8,0.4,0,2.4-0.8,5c-0.4,1.4-0.9,3-1.3,4.5c-0.5,1.5-0.9,2.8-1.3,3.7c-1.8,3.7-3.7,7.3-5.9,10.9
						c-2.2,3.6-4.6,7.1-7.3,10.4c-5.3,6.7-11.4,12.9-18,18.2c-0.9,0.7-1.8,1.4-2.7,2c-0.9,0.6-1.7,1.2-2.8,1.7
						c-7.2,5.6-17.2,10.2-26.5,13.1c-2.6,0.8-5.3,1.6-7.9,2.3c-2.6,0.5-5.1,1.1-7.6,1.5c-7.2,1.3-15.3,1.9-23.4,2c-2,0-4.1,0-6.2,0
						c-2.1-0.1-4.1-0.1-6.2-0.2c-2.1-0.1-4.1-0.3-6.2-0.4c-2.1-0.1-4.1-0.3-6.1-0.5c-3-0.2-5.9-0.5-8.9-0.8
						c-6.9-0.9-13.8-1.7-20.6-2.6c-6.7-0.9-13-2.1-18.5-3.2c-7.3-1.5-14.7-3.3-22.1-5.3c-7.4-2-14.9-4.4-22.3-6.9
						c-1.6-0.7-3.7-1.6-5.8-2.4c-1.1-0.4-2.1-0.8-3.1-1.2c-1-0.4-2-0.8-2.9-1.2c-2.2-1-4.6-1.9-6.9-3c-2.3-1.1-4.6-2.2-6.9-3.3
						c-2.3-1.1-4.5-2.3-6.7-3.5c-1.1-0.6-2.2-1.2-3.2-1.8c-1-0.6-2-1.3-3-1.9c-1.7-1.1-3.7-2.6-5.7-4c-2-1.4-4.3-2.9-5.6-4.1
						c-0.9-0.8-0.8-1.6-2.3-2.6c0.9-0.5-0.3-2.9,4.2-0.7c3,1.4,5.8,3.7,8.6,5.4c8.7,5.5,19.2,10.8,30.2,15.3
						c10.9,4.6,22.3,8.3,32.3,11.1c7.2,2,15.2,3.7,21.8,5.5c7,1.2,14.2,2.5,21.1,3.5c22.1,2.9,44.7,5.5,66.7,3.2
						c6.1-0.8,12.1-1.7,18.1-3.4c0.7-0.2,1.5-0.4,2.3-0.6l1.1-0.3l1.1-0.4c1.5-0.5,3-1,4.5-1.6l1.1-0.4l1.1-0.5
						c0.7-0.3,1.5-0.6,2.2-1c0.7-0.3,1.5-0.6,2.2-1l1.1-0.5c0.4-0.2,0.7-0.4,1.1-0.6c1.3-0.7,2.6-1.3,3.8-2c0.6-0.3,1.3-0.7,1.9-1
						l1.8-1.2c2.4-1.5,4.9-3,7.1-4.8c4.6-3.4,8.9-7.1,12.9-11.2c7.9-8.2,14.5-17.6,19.9-27.7c0.2-0.3,0.9-1.4,1.5-2.7
						C1117,631.6,1117.7,630.1,1118.1,629z"/>
					<path class="st1" d="M711.7,1041.5l1.7-1.3c1.1-0.6-2.2,1.7-3.7,2.8c-2,1.5-4.3,3.3-5.5,3.9c-1.1,0.5-2.1,0.8-2.2,0.5
						c-0.3-0.9,3-3.1,6.8-6.4c4.1-3.5,9.2-8.4,11.7-10.8c11.3-9.8,22.5-20.7,32.6-32.6l3.8-4.5l3.7-4.6c1.2-1.5,2.4-3.1,3.6-4.7
						c1.2-1.6,2.4-3.1,3.5-4.7c4.6-6.4,8.8-13,12.7-19.6c1.1-1.9,2.1-3.6,3.1-5.3c1-1.7,2-3.4,3-5.1c3.8-7.5,7.8-15.6,11.8-24.1
						c4-8.4,8-17.1,11.9-25.3c1.1-2.3,2.2-4.6,3.3-6.9c0.6-1.1,1.1-2.3,1.7-3.4c0.6-1.1,1.2-2.3,1.8-3.4c2.3-4.3,4.7-8.6,7.2-12.7
						c3.6-5.9,7.7-11.9,12.4-17.8c4.6-5.9,10-11.5,15.7-16.9c2.8-2.7,5.9-5.2,8.9-7.7c1.6-1.2,3.1-2.4,4.7-3.6l1.2-0.9l1.2-0.9
						c0.8-0.6,1.6-1.1,2.5-1.7c6.6-4.4,13.4-8.3,20.2-12c5-2.7,10-5.4,15.1-7.9c6-2.9,12-5.7,18.1-8.4c3-1.4,6.1-2.7,9.1-3.9
						c3-1.3,6-2.5,8.9-3.8c11.7-5,22.6-10,32.1-14.6c25.2-12.2,50.4-27,72.7-45.9c2.5-2.1,5.8-4.7,8.8-7.6c0.8-0.7,1.6-1.4,2.3-2.1
						c0.8-0.7,1.5-1.5,2.2-2.2c1.5-1.4,2.9-2.8,4.1-4.1c6.4-6.5,12.8-13.8,18.5-21.3c5.8-7.6,10.9-15.4,15.3-22.8
						c0.5-0.8,1-1.7,1.6-2.6c0.5-0.9,1.1-1.8,1.6-2.8c0.5-1,1.1-1.9,1.7-2.9c0.5-1,1-2,1.5-3c1-2,2.1-4.2,3-6.4
						c0.9-2.1,1.8-4,2.5-5.5c1-2.1,1.9-2.4,3-5.7c0.6,1.2,3.3-2.6,0.6,6.9c-0.4,1.6-1.1,3.1-1.7,4.7c-0.6,1.6-1.2,3.2-2,4.7
						c-1.5,3-2.9,6-4.4,8.8c-4.6,8.8-10.3,18-16.8,26.9c-6.6,8.9-14,17.6-22.1,25.7c-8.1,8.1-16.7,15.6-25.6,22.4
						c-8.8,6.8-17.7,12.8-26.3,18.1c-12.3,7.6-26.1,15.3-38,20.6c-12.2,6.2-25.1,11.8-37.4,16.9c-9.8,4.1-19.6,8.4-29.1,13.1
						c-9.6,4.7-19,9.7-28.2,15.1c-2.3,1.4-4.5,2.8-6.8,4.2c-2.2,1.5-4.4,2.9-6.5,4.5c-2.1,1.7-4.2,3.2-6.2,4.9l-3,2.6l-1.5,1.3
						l-1.5,1.4c-7.8,7.2-14.9,15.1-21.1,23.6c-3.4,4.8-6.6,9.7-9.6,14.8c-3,5.1-5.8,10.3-8.5,15.6c-5.4,10.7-10.4,21.8-15.9,33.4
						c-4.8,10.1-9.8,20-15.4,29.6c-5.5,9.6-11.6,18.8-18.2,27.5c-13.2,17.5-28.5,33.3-45.5,47.3
						C721.4,1033.8,715.3,1038.5,711.7,1041.5z"/>
					<path class="st1" d="M458.6,954.4l-1.6-0.2c-0.9-0.3,2.1,0.3,3.4,0.5c1.9,0.3,4.1,0.5,5,0.8c0.9,0.4,1.6,0.8,1.4,1.1
						c-0.3,0.8-3.3,0.3-7.1,0.1c-4.1-0.3-9.4-0.5-12.1-0.9c-11.3-1.9-23.1-4.5-34.4-9.1c-5.7-2.3-11.2-5.1-16.4-8.4
						c-1.3-0.9-2.6-1.7-3.8-2.6c-1.2-0.9-2.5-1.9-3.7-2.8c-2.4-2-4.6-4.1-6.8-6.3c-2.4-2.5-4.3-4.7-6.1-7.3c-4.2-5-8.2-10.9-11.8-17
						c-1.8-3.1-3.4-6.3-5.1-9.4c-1.7-3.1-3.2-6.3-4.7-9.4c-0.4-0.9-0.9-1.7-1.3-2.6l-1.2-2.6c-0.8-1.8-1.6-3.5-2.4-5.2
						c-1.5-3.3-2.8-6.8-4.2-10c-3.8-9.6-7.5-20.3-10.9-31.4c-3.4-11.1-6.4-22.6-9.2-33.8c-1-4.1-2.1-8.2-3-12.4
						c-4.3-19.4-8.7-39.3-12.1-54.8c-2.3-10.3-4.9-20.7-7.7-31.2c-2.8-10.5-5.9-21-9.4-31.5c-0.3-1.2-0.7-2.5-1.2-4
						c-0.5-1.4-1-2.9-1.5-4.4c-1-3-2.1-6.1-3.1-8.6c-4.8-12.9-11.1-26.8-16.8-38.6c-0.6-1.3-1.3-2.8-2-4.3c-0.7-1.5-1.5-3-2.3-4.6
						c-0.8-1.5-1.6-3.2-2.5-4.7c-0.9-1.5-1.6-2.9-2.1-4c-0.7-1.6-0.3-2.4-1.7-4.6c1.2,0.1,0.5-3.4,4.9,2.5c3,3.9,5.2,8.7,7.5,12.8
						c7,13.2,14,28.8,20,44.8c6,16,10.9,32.5,14.7,47.1c2.8,10.5,5.8,21.9,7.5,31.5c2.5,9.9,4.7,20.3,6.8,30
						c6.8,31.3,14.2,62.7,25.1,92.8c6.1,16.6,13.1,32.7,22.6,49.2c4.2,7.2,8.9,14,14.3,20.1c2.7,3,5.6,5.9,8.7,8.5
						c3.2,2.5,6.4,5,9.9,7c3.5,2.1,7.1,3.9,10.8,5.6c3.7,1.6,7.5,3.1,11.4,4.3c7.8,2.5,15.7,4.4,23.8,6
						C449.5,952.9,455.2,954.1,458.6,954.4z"/>
					<path class="st1" d="M355.9,661.3l-0.7-0.5c-0.3-0.4,0.9,0.6,1.5,1c0.9,0.5,1.9,1,2.3,1.4c0.3,0.5,0.5,0.9,0.3,1.2
						c-0.5,0.7-1.9-0.1-3.9-0.9c-1-0.5-2.2-1-3.4-1.5c-1.1-0.5-2.1-1.1-2.7-1.5c-5.1-3.8-9.5-8.8-13.2-14.3
						c-3.7-5.5-6.5-11.4-8.9-17.4c-0.6-1.7-1.1-3.1-1.4-4.8c-2.5-6.5-3.9-14.5-5.1-21.6c-0.3-2-0.7-4-1.1-6
						c-0.3-1.9-0.6-3.8-0.9-5.7c-1.6-10.7-3.2-23.4-6.4-34.9c-0.3-1.1-0.6-2.1-0.9-3.1c-0.4-1-0.7-2.1-1-3.1
						c-3-9.8-7.5-19.5-11.5-26.6c-5.3-9.6-12.1-18.8-19.9-27.3c-0.8-1-1.9-2.2-3-3.5c-0.6-0.6-1.1-1.2-1.7-1.8
						c-0.6-0.6-1.1-1.1-1.6-1.6c-5-5.2-11.2-10.3-16.2-15c-1.1-1-2.4-2.4-3.7-3.6c-1.4-1.2-3.1-2.4-3.9-3.5
						c-0.6-0.7-0.4-1.5-1.5-2.3c0.8-0.6,0-2.7,3.5-0.9c2.3,1.2,4.4,3.1,6.3,4.8c0.8,0.6,1.6,1.3,2.3,1.9c0.8,0.6,1.6,1.3,2.4,2
						c1.6,1.4,3.2,2.8,4.9,4.2c1.6,1.5,3.3,3,4.9,4.5c1.7,1.5,3.2,3.2,4.9,4.8c6.4,6.5,12.4,13.5,17.1,20c1.6,2.4,3.5,4.8,5,7.3
						c0.8,1.2,1.6,2.5,2.3,3.7c0.7,1.2,1.3,2.5,1.8,3.7c0.7,1.2,1.4,2.3,2.1,3.5c0.6,1.2,1.3,2.5,1.9,3.7c0.6,1.2,1.3,2.5,1.8,3.7
						c0.5,1.3,1.1,2.5,1.6,3.7c3.3,7.9,6.1,16.1,8.1,24.4c2,8.4,3.3,16.8,4.5,25.2c1.3,9.3,2.5,18.5,4.6,28.3
						c1.9,8.6,4.6,16.8,8.5,24.5c3.9,7.6,9,14.7,15.5,20.4c0.2,0.2,0.9,0.9,1.7,1.6C354,660.3,355.1,660.9,355.9,661.3z"/>
					<path class="st1" d="M432.5,340.6l-0.6,0.8c-0.5,0.4,0.8-1.1,1.3-1.7c0.7-0.9,1.4-2.1,1.9-2.5c0.5-0.3,1-0.5,1.3-0.2
						c0.6,0.6-0.5,2-1.6,4.1c-1.2,2.2-2.6,5.2-3.4,6.6c-7.8,11.4-16,23.8-23.3,36.1c-1.1,1.7-1.9,3.2-3,4.7
						c-3.6,6.8-8,14.7-11.7,22.1c-0.9,2.1-1.9,4.2-2.9,6.3c-0.9,2-1.8,4-2.6,6c-4.9,11.4-9.9,25.2-13.2,38.7c-0.6,2.5-1,5-1.6,7.5
						c-2.7,11.6-3.8,23.9-4.2,33.5c-0.5,12.7,0.2,26,2.4,39.2c0.1,1.5,0.3,3.4,0.6,5.3c0.3,1.9,0.7,3.8,1,5.5
						c1.5,8.3,3.9,17.2,5.5,25c0.4,1.7,0.7,3.8,1.2,5.9c0.4,2.1,1.2,4.4,1.3,5.9c0.1,1.1-0.5,1.6,0,3.1c-1-0.1-1.6,2.3-3.5-1.8
						c-0.6-1.3-1.1-2.8-1.6-4.3c-0.4-1.5-0.7-3-1.1-4.4c-2.3-8.8-4.9-19-6.8-29.3c-1.9-10.3-3.2-20.8-3.7-30.1
						c-0.1-3.3-0.4-6.8-0.4-10.2c0-1.7-0.1-3.4,0-5c0.1-1.6,0.2-3.2,0.4-4.7c0-1.6,0-3.2,0.1-4.8c0.1-1.6,0.2-3.2,0.3-4.8
						c0.3-3.2,0.6-6.3,1.1-9.3c0.4-2.4,0.7-4.9,1.1-7.3l1.3-7.3l1.6-7.2l0.4-1.8l0.5-1.8l0.9-3.6c2.6-9.6,5.6-19,9.4-28.1
						c4.2-10.1,8.8-19.9,14.5-30.2c4.9-9,10.2-17.7,15.7-26.1c5.5-8.4,11.2-16.6,17.3-24.7C429.2,345.1,431.4,342.4,432.5,340.6z"/>
					<path class="st1" d="M551.7,397.1l-0.5,0.6c-0.5,0.3,0.7-0.9,1.2-1.4c0.7-0.7,1.4-1.7,1.8-2c0.5-0.2,1-0.3,1.3-0.1
						c0.6,0.6-0.5,1.8-1.6,3.6c-0.3,0.5-0.6,1-0.9,1.5c-0.3,0.5-0.7,1-1,1.5c-0.6,1-1.3,1.9-1.7,2.5c-8.5,9.1-19.1,17.2-29.4,24.5
						c-1.5,1-2.7,1.8-4.2,2.6c-5.4,4.2-12.2,8.3-18,12.5c-1.6,1.1-3.2,2.4-4.8,3.6c-1.5,1.1-3,2.3-4.5,3.5
						c-8.4,6.7-17.8,15.4-25.8,24.5c-1.5,1.6-2.8,3.4-4.2,5.1c-3.4,3.9-6.5,8.2-9.5,12.3c-1.4,2.1-2.8,4.1-4.1,6.1
						c-1.3,1.9-2.4,3.9-3.5,5.7c-5.7,9.5-10.6,20-14.7,31c-0.6,1.2-1.2,2.7-1.8,4.3c-0.3,0.8-0.6,1.6-0.9,2.4
						c-0.3,0.8-0.5,1.5-0.7,2.2c-0.6,1.7-1.2,3.5-1.8,5.3l-0.5,1.4l-0.4,1.4l-0.8,2.7c-0.5,1.8-1.1,3.6-1.7,5.4
						c-0.5,1.8-1,3.5-1.6,5.2c-0.5,1.5-1.3,3.2-1.8,4.9c-0.5,1.8-1,3.8-1.7,5c-0.4,0.8-1.2,1-1.5,2.3c-0.9-0.5-2.5,1-2.2-2.9
						c0.2-2.6,1.1-5.3,1.8-7.7c0.6-1.9,1.2-3.9,1.7-6c0.3-1,0.5-2.1,0.9-3.1c0.3-1,0.6-2.1,1-3.2c0.7-2.1,1.2-4.3,2-6.5
						c0.7-2.2,1.4-4.3,2.2-6.5c3.1-8.6,6.4-17.3,10-24.5c0.6-1.3,1.3-2.7,1.9-4c0.7-1.3,1.4-2.7,2.1-4c0.7-1.3,1.4-2.6,2.1-3.8
						c0.7-1.2,1.5-2.4,2.3-3.4c2.6-4.9,5.8-9.5,8.9-13.9c2.6-3.4,5.1-7,7.9-10.3l2-2.5c0.7-0.8,1.4-1.7,2.1-2.5l4.3-4.9
						c1.4-1.7,3-3.1,4.5-4.7l2.3-2.3l1.1-1.2l1.2-1.1l4.8-4.4l1.2-1.1l1.2-1l2.5-2.1c7.3-6.2,15.1-11.5,23.6-17.2
						c14.9-9.9,29.4-19.3,42.1-31.5C548.3,400.7,550.7,398.6,551.7,397.1z"/>
					<path class="st1" d="M607.2,453.6l-0.5,0.2c-0.4-0.1,0.7-0.3,1.2-0.4c0.6-0.2,1.4-0.5,1.7-0.5c0.4,0.1,0.7,0.3,0.8,0.7
						c0.2,0.9-0.8,1.1-1.9,1.9c-1.3,0.8-2.8,2.1-3.6,2.5c-7.3,3.2-15.1,6.8-22.2,10.9c-1,0.6-1.9,1-2.9,1.4c-1.8,1.2-3.9,2.6-6,3.8
						c-2.1,1.3-4.2,2.6-6.2,3.9c-1.1,0.8-2.1,1.6-3.2,2.4c-1,0.8-2.1,1.5-3,2.3c-5.7,4.3-12.1,9.9-17.8,15.7c-1,1.1-2,2.2-3,3.2
						c-4.9,4.9-9.4,10.5-12.7,15c-4.4,5.9-8.4,12.5-12,19.4c-1.1,1.4-2.2,3.8-3.1,5.5c-2.3,4.3-4.5,9.2-7,13.2
						c-0.5,0.9-1.4,1.9-2,2.9c-0.7,1.1-1.3,2.3-2,3c-0.5,0.5-1.2,0.4-1.6,1.2c-0.8-0.6-2.5,0.1-1.9-2.5c0.4-1.7,1.5-3.3,2.3-4.8
						c2.6-4.7,5.2-10.2,8.1-15.6c2.8-5.4,5.9-10.8,8.8-15.4c2.1-3.3,4.2-7,6.7-9.5c1-1.6,2.1-3.1,3.3-4.5c0.6-0.7,1.2-1.4,1.7-2.2
						c0.6-0.7,1.2-1.4,1.8-2.1c7.5-8.7,15.7-17.1,24.8-24.2c1.3-1,2.5-2,3.8-2.9c1.3-0.9,2.6-1.9,3.9-2.8c1.3-1,2.7-1.8,4.1-2.7
						c1.4-0.9,2.8-1.8,4.3-2.7c10.3-6.2,20.8-11.4,32-15.1C604.1,454.7,606.1,454.2,607.2,453.6z"/>
					<path class="st1" d="M685.3,539.8l0.8-0.9c0.6-0.4-1,1.1-1.6,1.9c-0.8,1.1-1.7,2.4-2.3,2.9c-0.6,0.4-1.2,0.6-1.4,0.4
						c-0.6-0.6,0.7-2.3,2.2-4.8c0.9-1.2,1.8-2.7,2.8-4.1c1-1.3,1.9-2.5,2.6-3.2c0.7-0.8,1.5-1.5,2.3-2.2c0.8-0.7,1.6-1.4,2.4-2.1
						c0.9-0.7,1.7-1.3,2.6-2c0.9-0.7,1.7-1.3,2.7-1.9c0.9-0.6,1.8-1.2,2.8-1.8c0.9-0.6,1.9-1.1,2.9-1.7c1.9-1.1,3.9-2.1,5.9-3.1
						c8-3.8,16.6-6.4,25.2-8c1.2-0.2,2.3-0.4,3.4-0.5c1.1-0.1,2.2-0.3,3.3-0.3c4.6-0.8,9.8-1.1,14.9-1.1c5.2,0,10.4,0.4,15.4,0.8
						c1.4,0.1,2.8,0.2,4.2,0.4c1.4,0.1,2.8,0.3,4.1,0.4c2.6,0.3,5.2,0.7,7.8,1.1c7.4,1.2,15.4,2.8,23.5,4.6
						c8.1,1.8,16.4,3.9,24.5,5.7c3,0.7,5.9,1.2,8.9,1.9c6.9,1.6,14,3,20.7,4c6.7,1,13.1,1.7,18.7,2c7.5,0.4,15.1,0.3,22.7-0.7
						c7.6-0.9,15.2-2.6,22.7-4.9c3.4-0.8,8.5-2.5,12.2-3.9c9.3-3.4,19.2-8.1,28-11.7c1.9-0.8,4.3-1.6,6.6-2.5
						c2.3-0.9,4.9-2.1,6.6-2.6c1.2-0.3,1.9,0.2,3.6-0.6c0,1.1,2.7,1.2-1.8,3.9c-2.9,1.8-6.5,3.1-9.6,4.5
						c-9.8,4.3-20.9,9.5-32.5,13.8c-5.8,2.1-11.7,4.1-17.6,5.6c-5.8,1.5-11.6,2.6-17.1,3.2c-7.8,0.9-16.5,1.4-23.5,0.5
						c-7.4-0.1-15.1-1.2-22.2-2.3c-22.9-3.8-45.3-10.2-67.9-14.4c-12.5-2.3-25-4.1-38.7-4.1c-12,0-23.7,1.8-34.8,5.4
						c-11.1,3.6-21.6,9.3-30.4,17.2c-0.4,0.2-1.3,1.1-2.4,2C687.1,537.6,686.1,538.8,685.3,539.8z"/>
					<path class="st1" d="M803.7,643.3l0.5-0.5c0.4-0.2-0.6,0.6-1,1.1c-0.5,0.6-1.1,1.3-1.5,1.5c-0.5,0.1-0.9,0.1-1.1-0.1
						c-0.6-0.7,0.3-1.5,1.2-2.9c0.9-1.5,2.1-3.5,2.8-4.4c6.7-7,14.8-13.7,23.8-18.7c1.2-0.8,2.4-1.2,3.6-1.6
						c4.8-2.8,11.1-4.7,17-5.8c0.8-0.1,1.6-0.3,2.5-0.5c0.8-0.1,1.7-0.2,2.5-0.3c0.8-0.1,1.6-0.2,2.4-0.2c0.8,0,1.6,0,2.4,0
						c4.5-0.2,9.6,0.4,14.5,1.8c4.9,1.4,9.6,3.4,13.9,5.3c1.6,0.7,3.3,1.2,4.9,1.9c7.5,3.1,15.5,5.2,21.9,6.4
						c4.2,0.9,8.6,1.4,13,1.9c4.4,0.3,9,0.6,13.5,0.6c2,0.3,5.1,0.2,7.4,0.2c5.7,0,12-0.4,17.5-0.2c1.2,0,2.7,0.3,4.1,0.3
						c1.4,0,3.1,0,4.2,0.2c0.7,0.2,1,0.9,2.1,0.8c-0.2,1,1.4,2.2-1.6,2.9c-2,0.5-4.2,0.3-6.2,0.3c-6.3,0.1-13.4,0.4-20.6,0.4
						c-7.2,0.1-14.4-0.2-20.7-0.8c-4.5-0.5-9.5-0.9-13.5-2.2c-4.3-0.6-8.6-1.7-12.6-3c-6.5-1.9-12.8-4.5-19-7
						c-3.1-1.2-6.2-2.5-9.3-3.3c-3.1-0.9-6.3-1.5-9.5-1.7c-1.8-0.2-3.6-0.1-5.4-0.1c-0.9,0-1.8,0.1-2.7,0.2
						c-0.9,0.1-1.8,0.2-2.7,0.2c-3.6,0.6-7.3,1.3-11,2.6c-6.5,2.1-12.6,5.3-18.2,9.1c-5.6,3.8-10.9,8.1-16,12.7
						C806.5,640.6,804.6,642.2,803.7,643.3z"/>
					<path class="st1" d="M754.8,953.2l1-0.9c0.7-0.4-1.3,1.2-2.3,1.9c-1.3,1-2.7,2.2-3.5,2.6c-0.8,0.3-1.4,0.4-1.6,0.1
						c-0.4-0.8,1.6-2.3,4-4.5c0.3-0.3,0.6-0.6,1-0.9c0.3-0.3,0.6-0.7,0.9-1c0.6-0.7,1.3-1.4,1.9-2.1c0.6-0.7,1.2-1.3,1.7-1.9
						c0.5-0.6,0.9-1.1,1.3-1.6c6.7-6.7,12.8-14.4,18.3-22.7c5.5-8.3,10.4-17.2,14.7-26.1c1.3-2.5,2.3-4.6,3.6-6.9
						c4.2-9.9,9.5-21.4,14.1-32.1c1.3-3,2.5-6,3.8-9c1.2-2.9,2.6-5.7,3.8-8.4c3.7-8,8-16.6,13.1-25.2c5-8.6,10.8-17.1,17.3-24.8
						c1.1-1.4,2.4-2.8,3.6-4.2c1.2-1.4,2.4-2.8,3.8-4l2.4-2.2c0.8-0.7,1.6-1.5,2.4-2.2c1.7-1.4,3.3-2.8,5-4.2
						c1.7-1.3,3.5-2.6,5.2-3.9c1.7-1.2,3.6-2.3,5.4-3.5c7.1-4.5,14.5-7.6,21-9.9c17.4-6.2,36.3-9.1,54.9-12
						c4.2-0.4,10.6-1.4,15.2-2.2c5.8-0.9,11.9-2.1,17.8-3.4c5.9-1.3,11.7-2.8,17-4.3c1.2-0.3,2.5-0.7,3.8-1.1
						c1.3-0.4,2.8-0.8,4.1-1.3c2.8-0.9,5.8-2.4,7.8-3c1.4-0.5,2.1,0,4.1-1.1c-0.1,1.1,3.1,0.9-2.3,4.4c-3.6,2.2-8,3.8-11.8,5
						c-6.1,2.1-12.7,4-19.6,5.6c-6.9,1.6-14.1,2.9-21.3,4.1c-14.4,2.3-28.9,4.2-41.4,6.6c-9,1.7-18.6,4.4-26.5,6.7
						c-8.1,3.1-16.2,6.8-23.1,11.4c-0.7,0.5-1.4,0.9-2.1,1.4l-2,1.5c-1.3,1-2.7,2-4,3c-2.6,2.2-5.2,4.3-7.5,6.7
						c-2.5,2.3-4.7,4.9-7,7.4c-1.1,1.3-2.2,2.6-3.2,3.9l-1.6,2l-1.5,2c-8.2,10.9-14.9,22.8-20.9,35c-3.3,6.8-6.5,13.6-9.6,20.6
						c-3.1,7-6.2,14.2-9.5,21.7c-2.9,6.5-5.9,13-9,19.3c-3.1,6.3-6.5,12.5-10,18.6c-3.6,6-7.5,11.9-11.8,17.5
						c-1,1.4-2.2,2.7-3.3,4.1l-1.7,2c-0.6,0.7-1.2,1.3-1.8,2c-1.2,1.3-2.4,2.6-3.6,3.9l-3.8,3.7C760.8,948,756.9,951.1,754.8,953.2z
						"/>
					<path class="st1" d="M790.5,724.8l0.5-0.3c0.4,0-0.7,0.4-1.1,0.7c-0.6,0.3-1.2,0.8-1.6,0.9c-0.4,0-0.8-0.1-1-0.4
						c-0.4-0.8,0.6-1.3,1.6-2.3c1.1-1.1,2.4-2.7,3.2-3.3c7.2-4.6,15.6-8.6,24.1-11.2c1.2-0.4,2.2-0.6,3.4-0.7
						c4.6-1.6,10.3-2.3,15.5-2.6c1.4-0.1,2.9-0.2,4.4-0.2c1.4,0,2.8,0,4.1,0.1c3.9,0.2,8.2,0.7,12.5,1.7c4.3,1,8.6,2.5,12.6,4
						c1.5,0.5,3,1,4.4,1.6c6.7,2.8,13.6,4.9,19.2,6c7.4,1.6,15.2,2.2,23.2,2.1c1.8,0.3,4.5,0.1,6.5,0.1c5-0.1,10.5-0.7,15.3-0.7
						c1.1,0,2.4,0.2,3.6,0.2c1.3,0,2.7-0.1,3.7,0.1c0.7,0.1,1,0.8,2,0.7c-0.1,1,1.5,2.1-1.1,3c-1.7,0.6-3.7,0.5-5.5,0.6
						c-5.5,0.3-11.8,0.9-18.2,1.1c-6.3,0.2-12.7,0-18.3-0.5c-1-0.1-2-0.2-3-0.3c-1-0.1-2.1-0.2-3.1-0.4c-1-0.2-2-0.3-3-0.5
						c-1-0.2-1.9-0.5-2.8-0.8c-3.8-0.6-7.6-1.7-11.1-2.9c-5.7-1.9-11.1-4.1-16.6-6c-5.5-1.9-11.1-3.2-16.8-3.9
						c-3.2-0.4-6.3-0.5-9.6-0.4c-3.2,0.1-6.5,0.3-9.9,0.9c-6,0.9-11.8,2.5-17.3,4.6c-5.6,2.1-11,4.6-16.3,7.5
						c-0.2,0.1-0.8,0.3-1.5,0.6C791.7,723.9,791,724.4,790.5,724.8z"/>
					<path class="st1" d="M866,752.1l-0.6,0.2c-0.4-0.1,0.9-0.2,1.4-0.4c0.8-0.2,1.6-0.5,2.1-0.5c0.4,0.2,0.8,0.4,0.8,0.7
						c0.1,0.9-1.1,1.1-2.5,1.9c-0.8,0.4-1.6,0.9-2.4,1.3c-0.8,0.5-1.4,1-1.9,1.2c-1,0.4-2.1,0.9-3.2,1.3c-1,0.5-2.1,1-3.1,1.5
						l-1.6,0.8c-0.5,0.3-1,0.6-1.5,0.9c-1,0.6-2,1.2-3,1.8c-3.9,2.6-7.8,5.4-11.3,8.6c-1,0.9-1.9,1.6-2.9,2.3
						c-3.4,3.8-7.6,8.1-11,12.5c-0.9,1.2-1.8,2.5-2.7,3.8c-0.9,1.2-1.7,2.4-2.5,3.6c-2.3,3.5-4.7,7.4-7,11.5
						c-1.1,2.1-2.3,4.2-3.3,6.3c-1.1,2.1-2.1,4.3-3.1,6.4c-0.7,1.6-1.4,3.2-2.1,4.8c-3.5,7.4-6.6,15.2-9.2,21.3
						c-3.4,8.1-6.8,16.6-10.8,25.1c-1.2,1.8-2.5,4.7-3.7,6.7c-2.8,5.1-6.2,10.7-10,14.9c-0.9,0.9-2,1.9-3,2.9
						c-1.1,1-2.2,2.2-3.2,2.8c-0.7,0.4-1.4,0.1-2.1,0.9c-0.5-0.8-2.4-0.7-0.9-3.2c1-1.7,2.7-3,3.9-4.4c4-4.5,7.9-10.3,11.2-16.5
						c3.4-6.2,6.3-12.6,8.8-18.3c1.8-4.1,3.4-8.7,5.4-12.3c1.4-4,3.2-8,4.9-11.8c5.3-12.2,10.6-24.7,17.9-36
						c4-6.3,8.4-12.2,13.9-18.2c4.8-5.2,9.9-9.9,15.6-13.8c5.6-4,11.8-7.1,18.4-9.2c0.3,0,1-0.2,1.8-0.4
						C864.4,752.6,865.3,752.4,866,752.1z"/>
					<path class="st1" d="M711.5,488.4l-0.3,0.1c-0.3-0.1,0.5-0.2,0.8-0.3c0.4-0.1,0.9-0.4,1.1-0.3c0.3,0.2,0.5,0.4,0.6,0.7
						c0.2,0.8-0.4,1-1.2,1.6c-0.8,0.6-1.7,1.6-2.2,2c-4.8,2.1-10,4.2-14.8,6.6c-0.7,0.3-1.3,0.6-2,0.7c-2.4,1.6-5.5,3-8.1,4.6
						c-0.7,0.5-1.4,1-2.1,1.5c-0.7,0.5-1.4,0.9-2,1.4c-3.7,2.7-7.9,6.2-11.3,10c-0.6,0.7-1.2,1.5-1.8,2.2c-2.9,3.3-5.3,7.2-6.8,10.3
						c-2.1,4.1-3.2,8.9-4.3,14c-0.5,1.1-0.9,2.8-1.2,4.1c-0.9,3.2-2,6.8-4,9.5c-0.5,0.6-1.1,1.2-1.7,1.9c-0.6,0.6-1.1,1.4-1.8,1.7
						c-0.4,0.2-1.2-0.1-1.5,0.4c-0.7-0.6-2.3-0.7-1.8-2.2c0.2-0.5,0.5-0.9,0.8-1.4c0.3-0.4,0.7-0.8,1-1.3c1.9-2.7,3.3-6.4,4.3-10.2
						c1.1-3.8,1.9-7.8,3-11.2c0.7-2.5,1.5-5.3,3-7.2c0.9-2.3,2.2-4.5,3.6-6.5c4.3-6.4,9.6-12.1,15.8-16.7c3.4-2.6,7-4.7,11-6.9
						c7.1-3.6,14.2-6.5,21.6-8.7C709.5,489.1,710.8,488.9,711.5,488.4z"/>
					<path class="st1" d="M360.5,942.6l-0.4-0.4c-0.1-0.4,0.5,0.5,0.9,0.8c0.5,0.5,1.1,0.9,1.2,1.2c0,0.4,0,0.8-0.2,1
						c-0.6,0.6-1.3-0.1-2.5-0.8c-0.6-0.4-1.4-0.7-2.1-1.1c-0.7-0.4-1.3-0.7-1.7-1c-5.8-5.4-11.4-12-16.1-18.7
						c-0.7-0.9-1.2-1.8-1.7-2.8c-2.8-3.4-5.2-8.1-7.6-12.2c-0.6-1.2-1.3-2.3-2-3.4c-0.6-1.1-1.2-2.2-1.7-3.3
						c-3.3-6.3-6.7-14.1-9.4-21.6c-0.5-1.4-1.1-2.7-1.6-4.1c-2.1-6.5-4.2-13.3-5.6-18.6c-1.9-7.1-3.8-14.4-5.4-21.9
						c-0.1-1.7-0.7-4.3-1-6.2c-0.8-4.7-1.6-10-1.5-14.6c0-1,0.2-2.3,0.3-3.5c0.1-1.2,0-2.6,0.3-3.4c0.2-0.6,0.9-0.9,0.9-1.8
						c1,0.1,2.2-1.2,2.8,1.2c0.4,1.6,0.2,3.4,0.2,5c0.1,10.1,2.8,23,5.1,32.9c0.8,3.6,2.1,7.4,2.5,10.7c1.1,3.3,2,6.8,3,10
						c3.1,10.4,7.2,20.6,12,30.4c2.6,5.4,5.4,10.7,8.7,16.3c5.8,9.8,12.4,18.6,20,26.9C358.3,940.4,359.5,941.9,360.5,942.6z"/>
					<path class="st1" d="M433.4,905.2l0.1,0.2c-0.1,0.2-0.1-0.3-0.2-0.5c-0.1-0.3-0.3-0.5-0.3-0.7c0.2-0.2,0.4-0.4,0.7-0.6
						c0.8-0.3,0.9,0.1,1.5,0.5c0.6,0.4,1.4,0.8,1.8,1.1c1.7,2.8,3.6,5.8,5.7,8.5c0.3,0.4,0.5,0.7,0.6,1.2c1.4,1.2,2.5,3.1,3.9,4.6
						c0.4,0.4,0.8,0.8,1.2,1.2c0.4,0.4,0.7,0.8,1.1,1.1c2.1,2.1,4.7,4.6,7.4,6.7c0.5,0.4,1,0.7,1.5,1.1c2.2,2,4.7,3.7,6.7,5
						c2.6,1.8,5.5,3.4,8.4,5c0.5,0.6,1.5,1.1,2.2,1.6c1.7,1.2,3.7,2.4,5,4.1c0.3,0.4,0.5,1,0.9,1.5c0.3,0.5,0.8,0.9,0.9,1.5
						c0.1,0.4-0.2,1.1,0.1,1.3c-0.6,0.7-0.8,2.2-2,1.9c-0.7-0.2-1.2-1-1.7-1.6c-3.2-3.4-8.4-6.2-12.3-8.7c-1.4-0.9-3.1-1.6-4.1-2.9
						c-1.4-0.7-2.7-1.7-3.9-2.7c-3.9-3-7.9-6-11.4-9.5c-1.9-2-3.7-4-5.5-6.4c-3.1-4.1-5.9-8.4-7.6-13.2
						C434,906.5,433.8,905.6,433.4,905.2z"/>
					<path class="st1" d="M688.2,478.1l-0.6,0.2c-0.4-0.1,0.8-0.3,1.4-0.4c0.7-0.2,1.6-0.6,2-0.5c0.4,0.1,0.8,0.3,0.9,0.7
						c0.2,0.9-1,1.2-2.4,1.9c-1.5,0.8-3.5,2.1-4.5,2.5c-9.1,2.8-19.3,4.3-29,5.3c-1.4,0.1-2.5,0.2-3.8,0.1
						c-5.2,0.8-11.3,0.9-16.9,1.3c-1.5,0.1-3.1,0.3-4.6,0.4c-1.5,0.1-3,0.2-4.4,0.4c-8.3,0.8-18.1,1.9-27,4
						c-1.6,0.4-3.3,0.9-4.9,1.3c-7.7,1.9-15.1,5.2-20.7,8.2c-7.4,3.9-14.4,9.3-20.8,15.4c-1.6,1.2-3.7,3.3-5.2,5
						c-3.9,4-7.6,8.8-11.2,12.8c-0.8,0.9-1.8,1.9-2.8,2.9c-1,1-1.8,2.4-2.7,3.1c-0.6,0.5-1.3,0.3-1.9,1.2c-0.7-0.7-2.6-0.1-1.4-3
						c0.4-0.9,1-1.8,1.6-2.7c0.7-0.8,1.4-1.6,2-2.4c3.8-4.9,8.3-10.4,13.2-15.6c4.9-5.1,10.3-9.9,15.3-13.6c0.9-0.7,1.8-1.3,2.8-2
						c1-0.7,1.9-1.4,2.9-2c2-1.2,3.9-2.4,5.8-3.1c3.6-2.3,7.7-4,11.5-5.5l4.7-1.7l4.8-1.5c1.6-0.5,3.2-0.9,4.8-1.3
						c1.6-0.4,3.2-0.8,4.9-1.1l4.9-1l4.9-0.8c1.6-0.3,3.3-0.5,4.9-0.7c1.6-0.2,3.3-0.4,4.9-0.5c7.3-0.7,14.5-1.1,22.3-1.5
						c13.7-0.8,26.9-1.9,40.1-4.9C684.5,479.2,686.9,478.8,688.2,478.1z"/>
					<path class="st1" d="M866.9,598.3l-0.3,0c-0.2-0.2,0.4,0,0.7,0c0.4,0,0.8-0.1,1,0.1c0.2,0.3,0.3,0.5,0.3,0.9
						c0,0.9-0.7,0.8-1.4,1.1c-0.8,0.3-1.9,1-2.4,1.2c-4.6,0.4-9.5,0.7-14.2,1.3c-0.7,0.1-1.2,0.1-1.9,0c-1.2,0.4-2.6,0.5-4,0.7
						c-1.4,0.2-2.8,0.3-4.2,0.6c-0.7,0.1-1.5,0.4-2.2,0.5c-0.7,0.1-1.4,0.3-2.1,0.4c-4,1-8.7,2.2-13.1,3.7c-0.8,0.3-1.5,0.7-2.3,1
						c-3.8,1.2-7.4,3-10.3,4.4c-3.7,2-7.4,4.4-10.9,7.1c-1,0.4-2.1,1.3-3,2c-2.2,1.6-4.3,3.6-6.5,5c-0.5,0.3-1.2,0.6-1.8,1
						c-0.6,0.4-1.1,1-1.7,1.2c-0.4,0.2-1.1-0.1-1.5,0.3c-0.7-0.6-2.4-0.5-1.8-2.2c0.4-1.1,1.5-1.8,2.3-2.5c2.5-2.3,5.3-4.7,8.2-6.8
						c1.4-1.1,2.9-2.1,4.3-3.1c1.4-1,2.8-1.9,4.2-2.8c0.5-0.3,1-0.6,1.4-1c0.5-0.3,1-0.6,1.5-0.9c1-0.6,2-1.1,3-1.4
						c1.8-1.1,3.8-2.1,5.8-2.8c6.2-2.6,12.5-4.9,19-6.4c3.6-0.9,7.2-1.4,11.2-1.9c6.9-0.8,13.6-1.2,20.5-0.8
						C865,598.3,866.1,598.5,866.9,598.3z"/>
					<path class="st1" d="M803.6,583l-0.1,0.1c-0.2-0.1,0.1-0.2,0.2-0.2c0.1-0.1,0.2-0.3,0.4-0.3c0.2,0.1,0.5,0.3,0.7,0.5
						c0.6,0.6,0.3,0.8,0.3,1.3c0,0.5,0.1,1.3,0,1.6c-1.2,1.7-2.7,3.5-4.1,5.3c-0.2,0.3-0.4,0.5-0.7,0.6c-0.4,1.2-1.6,2.2-2.4,3.2
						c-0.2,0.3-0.4,0.7-0.6,1c-0.2,0.3-0.4,0.6-0.6,0.9c-1.2,1.7-2.7,3.6-4.2,5.5c-0.3,0.3-0.5,0.8-0.8,1.1
						c-1.5,1.5-2.9,3.1-4.1,4.3c-1.6,1.5-3.3,3.3-5.2,4.8c-0.6,0.1-1.3,0.6-1.8,0.9c-1.4,0.7-3,1.5-4.6,1.2
						c-0.4-0.1-0.9-0.3-1.3-0.4c-0.4-0.1-0.9-0.2-1.2-0.5c-0.2-0.2-0.5-0.9-0.8-0.9c-0.2-0.9-0.8-2.2-0.3-2.7
						c0.3-0.3,0.9,0.1,1.4,0.1c1.5,0.2,3-0.2,4.4-1c1.4-0.8,2.7-1.8,3.8-2.7c0.8-0.7,1.4-1.6,2.4-2c0.5-0.9,1.3-1.5,2-2.2
						c2.2-2.2,3.9-4.9,5.8-7.4c1.1-1.4,2.2-2.8,3.4-4.2c2.2-2.5,4.3-5.1,7-7.1C802.9,583.7,803.5,583.4,803.6,583z"/>
					<path class="st1" d="M351,719.4c-0.1-0.1-0.2-0.1-0.4-0.2c-0.1-0.3,0.5,0.2,0.8,0.3c0.4,0.2,0.9,0.3,1.1,0.6
						c0.1,0.3,0.2,0.7,0,1c-0.4,0.8-1,0.4-2.1,0.3c-1.1-0.1-2.6-0.2-3.3-0.3c-5.4-2.4-10.7-6.2-15.1-10.4c-0.6-0.6-1.1-1.1-1.5-1.9
						c-2.6-2.1-4.7-5.4-6.6-8.4c-0.5-0.8-1.1-1.6-1.6-2.5c-0.5-0.8-0.9-1.7-1.4-2.5c-2.5-4.7-4.6-10.6-6.3-16.2c-0.3-1-0.7-2-1-3
						c-1.2-4.8-2.5-9.6-3.6-13.4c-1.4-4.9-3.4-9.9-5.8-14.5c-0.3-1.2-1.2-2.7-1.8-3.8c-1.5-2.9-3.6-5.8-5.1-8.5
						c-0.3-0.6-0.6-1.5-1.1-2.2l-0.7-1.1c-0.2-0.4-0.4-0.7-0.5-1.1c-0.1-0.5,0.3-1.2-0.2-1.6c0.7-0.6,0.9-2.3,2.6-1.3
						c1.2,0.6,1.8,2,2.5,3c2.3,3.2,4.7,6.9,6.8,10.7c2.1,3.8,3.9,7.8,5.2,11.3c1,2.5,2.2,5.3,2.4,7.7c1,2.4,1.6,4.9,2.2,7.3
						c2,7.7,4.3,15.2,7.5,22.3c1.8,3.9,3.9,7.6,6.7,11.3c4.9,6.5,11,11.7,18,15.8C348.9,718.4,350.1,719.3,351,719.4z"/>
					<path class="st1" d="M499.5,295.7l-0.3,0.2c-0.3-0.1,0.4-0.2,0.7-0.4c0.4-0.2,0.8-0.5,1-0.5c0.3,0.1,0.6,0.3,0.7,0.6
						c0.4,0.8-0.2,1.1-0.8,1.7c-0.6,0.7-1.3,1.9-1.7,2.3c-2.1,1.4-4.2,2.8-6.4,4.1c-2.2,1.4-4.4,2.8-6.5,4.2
						c-0.6,0.4-1.1,0.7-1.8,0.9c-2.1,1.8-4.9,3.4-7.4,5.1c-0.7,0.5-1.3,1-1.9,1.5c-0.6,0.5-1.3,0.9-1.9,1.4
						c-1.8,1.3-3.7,2.9-5.6,4.4c-1.9,1.6-3.9,3.2-5.8,4.9c-0.7,0.6-1.3,1.3-2,1.9c-1.7,1.4-3.2,2.9-4.7,4.3c-1.5,1.4-2.8,2.9-4,4.1
						c-3.1,3.3-5.9,7.2-8.6,11c-0.8,0.7-1.7,2.1-2.4,3.1c-0.4,0.6-0.9,1.2-1.4,1.8c-0.4,0.6-0.9,1.3-1.3,1.9
						c-0.9,1.3-1.9,2.5-2.9,3.5c-0.5,0.5-1.1,1-1.7,1.5c-0.6,0.5-1.1,1.2-1.7,1.5c-0.4,0.2-1.2,0-1.5,0.4c-0.8-0.6-2.4-0.5-1.9-2.1
						c0.3-1.1,1.3-1.9,2-2.7c1-1.3,2.2-2.7,3.3-4.2c0.5-0.7,1.1-1.5,1.6-2.3c0.6-0.8,1.1-1.5,1.7-2.3c1.1-1.6,2.2-3.1,3.3-4.6
						c1.1-1.5,2.1-3,3.2-4.2c1.6-1.8,3-4.1,4.8-5.4c0.7-0.9,1.5-1.8,2.2-2.6c0.8-0.8,1.6-1.6,2.4-2.4c5.1-4.9,10.4-9.8,16.1-14.1
						c1.6-1.2,3.2-2.3,4.8-3.5c1.6-1.1,3.4-2.2,5.1-3.4c6.3-4,12.4-7.7,19-10.9C497.7,296.7,498.9,296.3,499.5,295.7z"/>
				</g>
			</g>
		</g>
		<g id="Zzz">
			<path d="M819.9,430.3c-23.9,2.3-47.8,4.6-71.7,6.8l4.7,28.1l52.5-14.3L770.9,523l86.5-10.3l-3.3-36l-53.7,24.8
				C806.9,477.8,813.4,454,819.9,430.3z"/>
			<path d="M895.3,232.9c-28.8,20.6-57.7,41.2-86.5,61.8c7.9,8.7,15.8,17.4,23.6,26c17.8-18.8,35.5-37.6,53.3-56.4
				c8,36,16,71.9,24,107.9c28.7-26.2,57.3-52.4,86-78.5c-9.4-11.1-18.9-22.3-28.3-33.4c-15.5,22.2-30.9,44.3-46.4,66.5
				C912.5,295.5,903.9,264.2,895.3,232.9z"/>
			<path d="M1155.9,0c-42.4,18-84.7,36-127.1,54l24.8,48.5l87.6-56.6l-21,151.9l152-68.9l-26.9-63.8l-83.7,76.4
				C1159.8,94.3,1157.8,47.2,1155.9,0z"/>
		</g>
	</g>
</g>
</svg>
